<svg width="35" height="35" viewBox="0 0 35 35" fill="none" xmlns="http://www.w3.org/2000/svg">
<g clip-path="url(#clip0)">
<path d="M30.8973 23.3728C29.9566 25.9224 28.5339 28.1392 26.6681 29.9612C24.5445 32.0349 21.7636 33.6827 18.4028 34.8582C18.2925 34.8967 18.1774 34.9282 18.0618 34.9514C17.909 34.9816 17.7536 34.9979 17.5996 35H17.5694C17.4052 35 17.2401 34.9834 17.0764 34.9514C16.9608 34.9282 16.8473 34.8967 16.7376 34.859C13.3728 33.6854 10.5884 32.0384 8.46263 29.9646C6.59609 28.1427 5.17363 25.9272 4.23422 23.3776C2.52604 18.7419 2.62324 13.6353 2.70148 9.53158L2.70281 9.46856C2.71856 9.1297 2.72871 8.77375 2.73432 8.38068C2.76289 6.45087 4.29724 4.8543 6.22733 4.74669C10.2515 4.52212 13.3645 3.20967 16.0244 0.617085L16.0476 0.595723C16.4893 0.19064 17.0457 -0.00802959 17.5996 0.000248343C18.1336 0.00719111 18.6655 0.205594 19.0915 0.595723L19.1141 0.617085C21.7746 3.20967 24.8876 4.52212 28.9117 4.74669C30.8418 4.8543 32.3761 6.45087 32.4047 8.38068C32.4103 8.77642 32.4205 9.13184 32.4362 9.46856L32.437 9.49526C32.515 13.6067 32.6117 18.7235 30.8973 23.3728Z" fill="#E41139"/>
<path d="M30.8969 23.373C29.9562 25.9226 28.5334 28.1395 26.6677 29.9614C24.544 32.0352 21.7632 33.683 18.4023 34.8585C18.2921 34.8969 18.177 34.9284 18.0613 34.9517C17.9086 34.9818 17.7532 34.9981 17.5991 35.0003V0.000488281C18.1332 0.00743106 18.6651 0.205834 19.091 0.595963L19.1137 0.617326C21.7741 3.20991 24.8871 4.52236 28.9113 4.74693C30.8414 4.85454 32.3757 6.45111 32.4043 8.38093C32.4099 8.77667 32.42 9.13208 32.4358 9.46881L32.4366 9.49551C32.5146 13.607 32.6112 18.7238 30.8969 23.373Z" fill="#C70025"/>
<path d="M26.2918 17.5001C26.2918 22.2994 22.395 26.2061 17.5997 26.2232H17.569C12.7595 26.2232 8.84595 22.3098 8.84595 17.5001C8.84595 12.6907 12.7595 8.77734 17.569 8.77734H17.5997C22.395 8.79443 26.2918 12.7011 26.2918 17.5001Z" fill="white"/>
<path d="M26.2912 17.5001C26.2912 22.2994 22.3944 26.2061 17.5991 26.2232V8.77734C22.3944 8.79443 26.2912 12.7011 26.2912 17.5001Z" fill="#E1EBF0"/>
<path d="M21.5286 16.2438L17.6001 20.1729L16.7512 21.0218C16.5507 21.2223 16.2877 21.3225 16.0249 21.3225C15.7619 21.3225 15.4991 21.2223 15.2983 21.0218L13.4732 19.1958C13.0721 18.7948 13.0721 18.1451 13.4732 17.7437C13.8737 17.3427 14.5242 17.3427 14.9253 17.7437L16.0249 18.8434L20.0765 14.7917C20.4776 14.3904 21.1281 14.3904 21.5286 14.7917C21.9297 15.1928 21.9297 15.8433 21.5286 16.2438Z" fill="#627087"/>
<path d="M21.5277 16.2438L17.5991 20.1729V17.2679L20.0755 14.7917C20.4766 14.3904 21.1271 14.3904 21.5277 14.7917C21.9287 15.1928 21.9287 15.8433 21.5277 16.2438Z" fill="#465166"/>
</g>
<defs>
<clipPath id="clip0">
<rect width="35" height="35" fill="white"/>
</clipPath>
</defs>
</svg>
