<svg width="37" height="45" viewBox="0 0 37 45" fill="none" xmlns="http://www.w3.org/2000/svg">
<g clip-path="url(#clip0)">
<path d="M14.1248 10.6847C13.6947 11.8502 13.0443 12.8636 12.1914 13.6965C11.2206 14.6445 9.94934 15.3978 8.41297 15.9352C8.36255 15.9528 8.30994 15.9672 8.25708 15.9778C8.18726 15.9916 8.11621 15.999 8.04578 16H8.03198C7.95691 16 7.88147 15.9924 7.80664 15.9778C7.75379 15.9672 7.70191 15.9528 7.65174 15.9355C6.11353 15.399 4.8407 14.6461 3.86889 13.6981C3.01562 12.8652 2.36535 11.8524 1.93591 10.6869C1.15502 8.56774 1.19946 6.23327 1.23523 4.35729L1.23584 4.32848C1.24304 4.17358 1.24768 4.01086 1.25024 3.83117C1.2633 2.94897 1.96472 2.21911 2.84704 2.16991C4.68664 2.06725 6.10974 1.46728 7.32569 0.282096L7.33631 0.27233C7.53821 0.0871497 7.7926 -0.00367067 8.04578 0.000113528C8.28992 0.00328737 8.53308 0.0939856 8.72779 0.27233L8.73816 0.282096C9.95435 1.46728 11.3774 2.06725 13.217 2.16991C14.0994 2.21911 14.8008 2.94897 14.8139 3.83117C14.8164 4.01208 14.8211 4.17455 14.8283 4.32848L14.8286 4.34069C14.8643 6.22021 14.9085 8.55932 14.1248 10.6847Z" fill="#E41139"/>
<path d="M14.1239 10.6846C13.6939 11.8501 13.0435 12.8635 12.1906 13.6964C11.2197 14.6444 9.94849 15.3977 8.41211 15.9351C8.36169 15.9527 8.30908 15.9671 8.25623 15.9777C8.1864 15.9915 8.11536 15.9989 8.04492 15.9999V0C8.28906 0.00317384 8.53223 0.0938722 8.72693 0.272217L8.73731 0.281983C9.95349 1.46717 11.3766 2.06714 13.2162 2.1698C14.0985 2.219 14.7999 2.94886 14.813 3.83106C14.8156 4.01197 14.8202 4.17444 14.8274 4.32838L14.8278 4.34058C14.8634 6.2201 14.9076 8.55922 14.1239 10.6846Z" fill="#C70025"/>
<path d="M12.0199 7.99976C12.0199 10.1937 10.2385 11.9796 8.04639 11.9874H8.03235C5.83374 11.9874 4.04468 10.1985 4.04468 7.99976C4.04468 5.80115 5.83374 4.01221 8.03235 4.01221H8.04639C10.2385 4.02002 12.0199 5.80591 12.0199 7.99976Z" fill="white"/>
<path d="M12.0184 7.99976C12.0184 10.1937 10.2371 11.9796 8.04492 11.9874V4.01221C10.2371 4.02002 12.0184 5.80591 12.0184 7.99976Z" fill="#E1EBF0"/>
<path d="M9.84198 7.42593L8.04608 9.22208L7.65802 9.61014C7.56635 9.70182 7.44611 9.74759 7.32599 9.74759C7.20575 9.74759 7.08563 9.70182 6.99384 9.61014L6.15948 8.77542C5.97614 8.59207 5.97614 8.29508 6.15948 8.1116C6.34259 7.92825 6.63995 7.92825 6.8233 8.1116L7.32599 8.61429L9.17816 6.76212C9.36151 6.57864 9.65888 6.57864 9.84198 6.76212C10.0253 6.94547 10.0253 7.24283 9.84198 7.42593Z" fill="#627087"/>
<path d="M9.84082 7.42593L8.04492 9.22208V7.89407L9.177 6.76212C9.36035 6.57864 9.65772 6.57864 9.84082 6.76212C10.0242 6.94547 10.0242 7.24283 9.84082 7.42593Z" fill="#465166"/>
</g>
<g clip-path="url(#clip1)">
<path d="M36.3364 19.6339C35.3527 21.7968 34.4962 22.6533 32.9841 24.1661C31.1821 25.9612 28.1982 23.6514 26.3593 21.8918L25.7332 21.2656C25.7255 21.258 25.2047 20.7372 25.107 20.6395C21.5106 16.8811 21.8852 14.9629 22.8327 14.0148C24.3455 12.5026 25.202 11.6461 27.3649 10.6624C30.0952 9.42306 32.645 9.92686 34.8591 12.1397C37.0733 14.3552 37.5751 16.9057 36.3364 19.6339Z" fill="#7D8798"/>
<path d="M36.3366 19.6339C35.3529 21.7968 34.4964 22.6533 32.9843 24.1661C31.1823 25.9612 28.1984 23.6514 26.3596 21.8918L25.7334 21.2656L34.8594 12.1396C37.0735 14.3552 37.5753 16.9057 36.3366 19.6339Z" fill="#465166"/>
<path d="M8.75713 38.242C8.31074 37.7963 8.03047 37.2152 7.84863 36.3587L7.41113 34.2949L2.00049 40.7733L6.22715 45L11.2782 40.7638L8.75713 38.242Z" fill="#7D8798"/>
<path d="M11.2778 40.764L6.22671 45.0002L4.11304 42.8865L8.75669 38.2422L11.2778 40.764Z" fill="#465166"/>
<path d="M21.5471 33.6298L15.5062 27.5889L16.8515 25.9421L15.5732 25.4157C14.0842 24.8023 12.6608 24.7431 11.6576 23.7409L9.48237 21.5664L2.23218 28.8166L4.40669 30.9918C5.28032 31.8647 5.41704 33.2504 5.56196 34.7181C5.74653 36.5897 5.96255 38.3479 7.30718 39.6926L9.20073 41.5861C10.9692 43.3539 13.7453 43.6048 15.8063 42.133L21.1595 38.309C22.7051 37.2043 22.8917 34.9751 21.5471 33.6298Z" fill="#FFF4EE"/>
<path d="M21.1582 38.3088L15.805 42.1328C13.744 43.6046 10.9679 43.3537 9.19946 41.586L7.30591 39.6924L17.4573 29.541L21.5458 33.6296C22.8905 34.9749 22.7039 37.2041 21.1582 38.3088Z" fill="#FDD8D0"/>
<path d="M20.3587 26.6413L16.6563 22.939L12.7441 27.7282L16.0076 30.9917L19.2711 34.2552L24.0604 30.343L20.3587 26.6413Z" fill="#7D8798"/>
<path d="M24.0598 30.3433L19.2706 34.2555L16.0071 30.992L20.3582 26.6416L24.0598 30.3433Z" fill="#465166"/>
<path d="M29.0582 23.7411L26.1583 20.8413L23.2579 17.9408C22.0582 16.7411 20.1065 16.7411 18.9075 17.9408L13.8318 23.0165L23.9825 33.1672L29.0582 28.0915C30.2579 26.8925 30.2579 24.9408 29.0582 23.7411Z" fill="#E41139"/>
<path d="M29.0582 28.0915L23.9825 33.1672L18.9075 28.0922L26.1584 20.8413L29.0582 23.7411C30.2579 24.9408 30.2579 26.8925 29.0582 28.0915Z" fill="#C70025"/>
<path d="M25.4335 25.9163L23.983 27.3669L19.6326 23.0165L21.0832 21.5659L23.2584 23.7411L25.4335 25.9163Z" fill="#F0F7FF"/>
<path d="M21.804 25.1924L23.2543 23.742L25.4292 25.9168L23.9788 27.3672L21.804 25.1924Z" fill="#DFE7F4"/>
</g>
<defs>
<clipPath id="clip0">
<rect width="16" height="16" fill="white"/>
</clipPath>
<clipPath id="clip1">
<rect width="35" height="35" fill="white" transform="translate(2 10)"/>
</clipPath>
</defs>
</svg>
