<svg width="43" height="43" viewBox="0 0 43 43" fill="none" xmlns="http://www.w3.org/2000/svg">
<g clip-path="url(#clip0)">
<path d="M25.4306 21.6293C31.4034 21.6293 36.2453 16.7874 36.2453 10.8147C36.2453 4.84189 31.4034 0 25.4306 0C19.4579 0 14.616 4.84189 14.616 10.8147C14.616 16.7874 19.4579 21.6293 25.4306 21.6293Z" fill="#465166"/>
<path d="M33.6503 10.8147C33.6503 11.0884 33.6368 11.3597 33.61 11.6259C33.5697 12.0442 33.4966 12.4532 33.395 12.8504C33.2598 13.3812 33.0716 13.891 32.8382 14.3748C32.6576 14.7502 32.4485 15.1096 32.215 15.4498C31.9084 15.8974 31.5591 16.3131 31.1719 16.6902C30.8754 16.9808 30.558 17.2479 30.2204 17.4906C29.7828 17.8055 29.3133 18.0785 28.8178 18.3035C28.4424 18.474 28.0527 18.6168 27.6496 18.7293C27.1356 18.8746 26.6006 18.9695 26.0514 19.0107C25.8465 19.0266 25.6399 19.0342 25.4307 19.0342C25.2216 19.0342 25.015 19.0266 24.8101 19.0107C24.2608 18.9695 23.7259 18.8746 23.2119 18.7293C22.8087 18.6168 22.4191 18.474 22.0436 18.3035C21.5481 18.0785 21.0787 17.8055 20.6411 17.4906C20.3035 17.2479 19.986 16.9808 19.6896 16.6902C19.3024 16.3131 18.953 15.8974 18.6465 15.4498C18.4122 15.1096 18.2039 14.7502 18.0225 14.3748V14.3739C17.789 13.891 17.6017 13.3812 17.4665 12.8504C17.3649 12.4532 17.2918 12.0442 17.2515 11.6259C17.2246 11.3597 17.2112 11.0884 17.2112 10.8147C17.2112 10.5409 17.2246 10.2704 17.2515 10.0034C17.2918 9.58513 17.3649 9.17612 17.4665 8.77888C17.6017 8.24893 17.789 7.73915 18.0225 7.2554V7.25456C18.2039 6.87915 18.4122 6.52054 18.6465 6.17956C18.9522 5.73276 19.3016 5.31704 19.6887 4.93995C19.9852 4.64936 20.3026 4.38229 20.6403 4.13958C21.0778 3.82464 21.5481 3.55169 22.0436 3.32661C22.4191 3.15612 22.8087 3.01335 23.2119 2.90081C23.7259 2.75552 24.2608 2.66062 24.8101 2.61946C25.015 2.60351 25.2216 2.59595 25.4307 2.59595C25.6399 2.59595 25.8465 2.60351 26.0514 2.61946C26.6006 2.66062 27.1356 2.75552 27.6496 2.90081C28.0527 3.01335 28.4424 3.15612 28.8178 3.32661C29.3133 3.55169 29.7836 3.82464 30.2212 4.13958C30.5588 4.38229 30.8763 4.64936 31.1727 4.93995C31.5591 5.31704 31.9084 5.73276 32.215 6.17956C32.4493 6.52054 32.6576 6.87999 32.839 7.2554C33.0725 7.73915 33.2598 8.24893 33.395 8.77888C33.4966 9.17612 33.5697 9.58513 33.61 10.0034C33.6368 10.2704 33.6503 10.5409 33.6503 10.8147Z" fill="#7D8798"/>
<path d="M10.8147 38.1945C16.7874 38.1945 21.6293 33.3526 21.6293 27.3799C21.6293 21.4071 16.7874 16.5652 10.8147 16.5652C4.84189 16.5652 0 21.4071 0 27.3799C0 33.3526 4.84189 38.1945 10.8147 38.1945Z" fill="#465166"/>
<path d="M19.0342 27.3797C19.0342 27.6535 19.0208 27.9239 18.9939 28.191C18.9536 28.6092 18.8805 29.0182 18.7789 29.4155C18.6437 29.9454 18.4564 30.4552 18.2229 30.939C18.0415 31.3144 17.8332 31.6738 17.5989 32.0148C17.2932 32.4616 16.9438 32.8773 16.5567 33.2544C16.2602 33.545 15.9419 33.8129 15.6043 34.0556C15.1676 34.3706 14.6981 34.6427 14.2026 34.8686C13.8272 35.0382 13.4367 35.1819 13.0344 35.2944C12.5195 35.4397 11.9854 35.5346 11.4353 35.5757C11.2304 35.5917 11.0238 35.5993 10.8147 35.5993C10.6055 35.5993 10.3989 35.5917 10.194 35.5757C9.64392 35.5346 9.10977 35.4388 8.59495 35.2944C8.19267 35.1819 7.80298 35.0391 7.42757 34.8686C6.93206 34.6435 6.46259 34.3706 6.02503 34.0556C5.68741 33.8129 5.36911 33.545 5.07265 33.2544C4.68632 32.8773 4.33694 32.4616 4.0304 32.0148C3.79692 31.6738 3.58864 31.3152 3.40724 30.9398V30.939C3.17376 30.4552 2.98647 29.9454 2.85126 29.4155C2.74964 29.0182 2.67657 28.6092 2.63626 28.191C2.60938 27.9239 2.59595 27.6535 2.59595 27.3797C2.59595 27.1059 2.60938 26.8355 2.63626 26.5684C2.67657 26.1502 2.74964 25.7412 2.85126 25.3439C2.98647 24.814 3.17376 24.3042 3.40724 23.8204V23.8196C3.58864 23.4442 3.79692 23.0856 4.0304 22.7446C4.33694 22.2978 4.68632 21.8821 5.07265 21.505C5.36911 21.2144 5.68657 20.9473 6.02419 20.7046C6.46175 20.3897 6.93206 20.1159 7.42757 19.8908C7.80298 19.7203 8.19267 19.5776 8.59495 19.465C9.10977 19.3206 9.64392 19.2248 10.194 19.1837C10.3989 19.1677 10.6055 19.1602 10.8147 19.1602C11.0238 19.1602 11.2304 19.1677 11.4353 19.1837C11.9854 19.2248 12.5195 19.3197 13.0344 19.465C13.4367 19.5776 13.8272 19.7212 14.2026 19.8908C14.6981 20.1167 15.1676 20.3897 15.6051 20.7046C15.9427 20.9473 16.2602 21.2144 16.5567 21.505C16.9438 21.8821 17.2932 22.2978 17.5989 22.7446C17.8332 23.0856 18.0415 23.445 18.2229 23.8204C18.4564 24.3042 18.6437 24.814 18.7789 25.3439C18.8805 25.7412 18.9536 26.1502 18.9939 26.5684C19.0208 26.8355 19.0342 27.1059 19.0342 27.3797Z" fill="#7D8798"/>
<path d="M32.1855 42.9999C38.1583 42.9999 43.0002 38.1581 43.0002 32.1853C43.0002 26.2125 38.1583 21.3706 32.1855 21.3706C26.2127 21.3706 21.3708 26.2125 21.3708 32.1853C21.3708 38.1581 26.2127 42.9999 32.1855 42.9999Z" fill="#465166"/>
<path d="M40.4034 32.1854C40.4034 32.4592 40.3899 32.7296 40.363 32.9967C40.3227 33.4149 40.2497 33.8231 40.148 34.2203C40.0128 34.7511 39.8255 35.2609 39.5921 35.7446V35.7455L38.9689 36.8205C38.6624 37.2673 38.313 37.683 37.9267 38.0601C37.6302 38.3507 37.3119 38.6186 36.9743 38.8613C36.5367 39.1762 36.0664 39.4492 35.5709 39.6734C35.1963 39.8439 34.8066 39.9867 34.4044 40.0992C33.8895 40.2445 33.3554 40.3394 32.8053 40.3806C32.6004 40.3965 32.3938 40.4041 32.1846 40.4041C31.9755 40.4041 31.7689 40.3965 31.564 40.3806C31.0139 40.3394 30.4798 40.2445 29.9649 40.0992C29.5626 39.9867 29.1721 39.8439 28.7976 39.6734C28.302 39.4483 27.8326 39.1762 27.395 38.8613C27.0574 38.6186 26.7391 38.3507 26.4426 38.0601C26.0555 37.683 25.7061 37.2673 25.4004 36.8205C25.1661 36.4795 24.9578 36.12 24.7764 35.7446C24.5429 35.2609 24.3556 34.7511 24.2204 34.2203C24.1188 33.8231 24.0457 33.4149 24.0054 32.9967C23.9785 32.7296 23.9651 32.4592 23.9651 32.1854C23.9651 31.9116 23.9785 31.6403 24.0054 31.3741C24.0457 30.9558 24.1188 30.5468 24.2204 30.1496C24.3556 29.6188 24.5429 29.109 24.7764 28.6261C24.9578 28.2507 25.1661 27.8913 25.4004 27.5503C25.7069 27.1026 26.0563 26.6869 26.4435 26.3098C26.7391 26.0201 27.0574 25.7522 27.3942 25.5103C27.8317 25.1954 28.3012 24.9224 28.7967 24.6965C29.1721 24.5268 29.5626 24.3832 29.9649 24.2707C30.4798 24.1254 31.0139 24.0305 31.564 23.9893C31.7689 23.9734 31.9755 23.9658 32.1846 23.9658C32.3938 23.9658 32.6004 23.9734 32.8053 23.9893C33.3545 24.0305 33.8895 24.1254 34.4035 24.2707C34.8066 24.3832 35.1963 24.526 35.5717 24.6965C36.0672 24.9216 36.5367 25.1945 36.9743 25.5095C37.3119 25.7522 37.6294 26.0192 37.9258 26.3098C38.3121 26.6869 38.6624 27.1026 38.9689 27.5503C39.2024 27.8904 39.4107 28.2499 39.5921 28.6253V28.6261C39.8255 29.109 40.0128 29.6188 40.148 30.1496C40.2497 30.5468 40.3227 30.9558 40.363 31.3741C40.3899 31.6403 40.4034 31.9116 40.4034 32.1854Z" fill="#7D8798"/>
<path d="M27.8718 9.16979V9.16005C27.8718 8.12595 27.178 7.25125 26.2315 6.97578V6.68335C26.2315 6.3354 25.9496 6.05347 25.6017 6.05347C25.2537 6.05347 24.9718 6.3354 24.9718 6.68335V6.885H24.5913V6.68335C24.5913 6.3354 24.3094 6.05347 23.9614 6.05347C23.6135 6.05347 23.3316 6.3354 23.3316 6.68335V6.885H23.1104C22.7624 6.885 22.4805 7.16693 22.4805 7.51488C22.4805 7.86283 22.7624 8.14476 23.1104 8.14476H23.3316V10.8149V13.485H23.1104C22.7624 13.485 22.4805 13.7669 22.4805 14.1149C22.4805 14.4628 22.7624 14.7448 23.1104 14.7448H23.3316V14.9465C23.3316 15.2944 23.6135 15.5764 23.9614 15.5764C24.3094 15.5764 24.5913 15.2944 24.5913 14.9465V14.7448H24.9718V14.9465C24.9718 15.2944 25.2537 15.5764 25.6017 15.5764C25.9496 15.5764 26.2315 15.2944 26.2315 14.9465V14.654C27.178 14.3784 27.8718 13.5038 27.8718 12.4697V12.46C27.8718 11.8135 27.6002 11.2295 27.1657 10.8149C27.6002 10.4002 27.8718 9.8163 27.8718 9.16979ZM26.612 12.46V12.4696C26.612 13.0295 26.1565 13.4849 25.5968 13.4849H24.5912V11.4447H25.5968C26.1565 11.4447 26.612 11.9001 26.612 12.46ZM24.5913 10.1849V8.14468H25.5969C26.1566 8.14468 26.6121 8.60012 26.6121 9.15996V9.16971C26.6121 9.72946 26.1566 10.1849 25.5969 10.1849H24.5913Z" fill="white"/>
<path d="M26.0608 2.72192V3.30897C26.0608 3.65667 25.7786 3.93886 25.4309 3.93886C25.0832 3.93886 24.801 3.65667 24.801 3.30897V2.72192C24.801 2.68665 24.8035 2.65306 24.8103 2.61946C25.0152 2.60351 25.2218 2.59595 25.4309 2.59595C25.64 2.59595 25.8466 2.60351 26.0516 2.61946C26.0583 2.65306 26.0608 2.68665 26.0608 2.72192Z" fill="white"/>
<path d="M26.0608 18.3213V18.9083C26.0608 18.9436 26.0583 18.9772 26.0516 19.0108C25.8466 19.0268 25.64 19.0343 25.4309 19.0343C25.2218 19.0343 25.0152 19.0268 24.8103 19.0108C24.8035 18.9772 24.801 18.9436 24.801 18.9083V18.3213C24.801 17.9728 25.0832 17.6914 25.4309 17.6914C25.7786 17.6914 26.0608 17.9728 26.0608 18.3213Z" fill="white"/>
<path d="M23.079 4.35381C23.0076 4.379 22.9345 4.3916 22.8631 4.3916C22.6062 4.3916 22.3643 4.23287 22.2711 3.97672L22.0703 3.42494C22.0586 3.39219 22.0493 3.35943 22.0435 3.32668C22.4189 3.15619 22.8086 3.01342 23.2117 2.90088C23.2285 2.93027 23.2428 2.96135 23.2545 2.9941L23.4552 3.54588C23.5745 3.87342 23.4057 4.23455 23.079 4.35381Z" fill="white"/>
<path d="M28.818 18.3034C28.4426 18.4739 28.0529 18.6167 27.6497 18.7292C27.633 18.6998 27.6187 18.6679 27.6069 18.6352L27.4062 18.0834C27.2869 17.7567 27.4557 17.3956 27.7824 17.2763C28.11 17.1571 28.4711 17.3259 28.5904 17.6526L28.7911 18.2043C28.8029 18.2371 28.8121 18.2707 28.818 18.3034Z" fill="white"/>
<path d="M21.0106 5.54723C20.8931 5.64633 20.7494 5.69504 20.6058 5.69504C20.4261 5.69504 20.2481 5.61861 20.1229 5.46996L19.7458 5.0198C19.724 4.99461 19.7055 4.96773 19.6887 4.94002C19.9852 4.64943 20.3026 4.38236 20.6403 4.13965C20.6655 4.1598 20.689 4.18416 20.7108 4.2102L21.0887 4.66035C21.3121 4.92658 21.2769 5.32383 21.0106 5.54723Z" fill="white"/>
<path d="M31.1715 16.6902C30.875 16.9807 30.5575 17.2478 30.2199 17.4905C30.1947 17.4687 30.1721 17.4452 30.1502 17.4191L29.7723 16.9698C29.5489 16.7027 29.5833 16.3055 29.8504 16.0821C30.1166 15.8587 30.5139 15.8931 30.7373 16.1602L31.1152 16.6095C31.137 16.6356 31.1555 16.6624 31.1715 16.6902Z" fill="white"/>
<path d="M19.4749 7.37706C19.3582 7.57862 19.1465 7.692 18.929 7.692C18.8223 7.692 18.714 7.66429 18.6149 7.60718L18.106 7.31323C18.0757 7.2956 18.048 7.27628 18.022 7.25528V7.25444C18.2034 6.87903 18.4117 6.52042 18.646 6.17944C18.6762 6.1912 18.7064 6.20548 18.7358 6.22227L19.2448 6.51622C19.5463 6.69007 19.6487 7.07556 19.4749 7.37706Z" fill="white"/>
<path d="M32.8381 14.3749C32.6575 14.7503 32.4484 15.1097 32.2149 15.4499C32.1839 15.4381 32.1536 15.4238 32.1242 15.407L31.6161 15.1139C31.3146 14.9393 31.2113 14.5546 31.3852 14.2531C31.559 13.9516 31.9445 13.8483 32.246 14.0221L32.7541 14.3161C32.7844 14.3337 32.8121 14.353 32.8381 14.3749Z" fill="white"/>
<path d="M18.6586 9.62033C18.6048 9.92604 18.3386 10.141 18.0387 10.141C18.0026 10.141 17.9657 10.1385 17.9287 10.1318L17.3501 10.0293C17.3156 10.0235 17.2829 10.0151 17.251 10.0033C17.2913 9.58506 17.3644 9.17605 17.466 8.77881C17.4996 8.77965 17.5348 8.78217 17.5693 8.78889L18.1471 8.89135C18.4897 8.95182 18.719 9.27852 18.6586 9.62033Z" fill="white"/>
<path d="M33.6094 11.6259C33.5691 12.0441 33.496 12.4531 33.3944 12.8503C33.3608 12.8495 33.3255 12.847 33.2911 12.8403L32.7125 12.7386C32.3698 12.6782 32.1414 12.3515 32.2018 12.0088C32.2623 11.6662 32.589 11.4369 32.9317 11.4982L33.5095 11.5998C33.5439 11.6057 33.5775 11.6149 33.6094 11.6259Z" fill="white"/>
<path d="M18.1479 12.7386L17.5693 12.8403C17.5348 12.847 17.4996 12.8495 17.466 12.8503C17.3644 12.4531 17.2913 12.0441 17.251 11.6259C17.2829 11.6149 17.3156 11.6057 17.3501 11.5998L17.9287 11.4982C18.2714 11.4369 18.5981 11.6662 18.6586 12.0088C18.719 12.3515 18.4897 12.6782 18.1479 12.7386Z" fill="white"/>
<path d="M33.6094 10.0033C33.5775 10.0142 33.5439 10.0235 33.5095 10.0293L32.9317 10.1318C32.8947 10.1385 32.8578 10.141 32.8216 10.141C32.5218 10.141 32.2556 9.92604 32.2018 9.62033C32.1414 9.27852 32.3698 8.95182 32.7125 8.89135L33.2911 8.78889C33.3255 8.78217 33.3608 8.77965 33.3944 8.77881C33.496 9.17605 33.5691 9.58506 33.6094 10.0033Z" fill="white"/>
<path d="M19.2448 15.1138L18.7358 15.4069C18.7064 15.4237 18.6762 15.438 18.646 15.4498C18.4117 15.1096 18.2034 14.7502 18.022 14.3748V14.3739C18.048 14.3529 18.0757 14.3336 18.106 14.316L18.6149 14.022C18.9156 13.849 19.3011 13.9515 19.4749 14.253C19.6487 14.5545 19.5463 14.9391 19.2448 15.1138Z" fill="white"/>
<path d="M32.8389 7.25528C32.8129 7.27628 32.7852 7.2956 32.755 7.31323L32.246 7.60718C32.1469 7.66429 32.0386 7.692 31.9319 7.692C31.7136 7.692 31.5019 7.57862 31.3852 7.37706C31.2113 7.07556 31.3146 6.69007 31.6161 6.51622L32.1242 6.22227C32.1536 6.20548 32.1839 6.1912 32.2149 6.17944C32.4493 6.52042 32.6575 6.87987 32.8389 7.25528Z" fill="white"/>
<path d="M21.0886 16.9698L20.7107 17.42C20.6889 17.446 20.6662 17.4695 20.641 17.4905C20.3034 17.2478 19.9859 16.9807 19.6895 16.6902C19.7054 16.6624 19.7239 16.6356 19.7457 16.6095L20.1228 16.1602C20.3471 15.8931 20.7443 15.8587 21.0105 16.0821C21.2768 16.3055 21.312 16.7027 21.0886 16.9698Z" fill="white"/>
<path d="M31.1723 4.94002C31.1555 4.96773 31.137 4.99461 31.1152 5.0198L30.7373 5.46996C30.613 5.61861 30.4341 5.69504 30.2544 5.69504C30.1116 5.69504 29.968 5.64633 29.8504 5.54723C29.5833 5.32383 29.5489 4.92658 29.7723 4.66035L30.1502 4.2102C30.1721 4.18416 30.1956 4.1598 30.2208 4.13965C30.5584 4.38236 30.8758 4.64943 31.1723 4.94002Z" fill="white"/>
<path d="M23.4552 18.0834L23.2545 18.6352C23.2428 18.6679 23.2285 18.6998 23.2117 18.7292C22.8086 18.6167 22.4189 18.4739 22.0435 18.3034C22.0493 18.2707 22.0586 18.2371 22.0703 18.2043L22.2711 17.6526C22.3903 17.3259 22.7514 17.1571 23.079 17.2763C23.4057 17.3956 23.5745 17.7567 23.4552 18.0834Z" fill="white"/>
<path d="M28.818 3.32668C28.8121 3.35943 28.8029 3.39303 28.7911 3.42494L28.5904 3.97672C28.4972 4.23287 28.2553 4.3916 27.9983 4.3916C27.9261 4.3916 27.8538 4.379 27.7824 4.35381C27.4557 4.23455 27.2869 3.87342 27.4062 3.54588L27.6069 2.9941C27.6187 2.96135 27.633 2.93027 27.6497 2.90088C28.0529 3.01342 28.4426 3.15619 28.818 3.32668Z" fill="white"/>
<path d="M11.4439 19.2861V19.874C11.4439 20.2217 11.1617 20.5039 10.814 20.5039C10.4663 20.5039 10.1841 20.2217 10.1841 19.874V19.2861C10.1841 19.2509 10.1866 19.2173 10.1933 19.1837C10.3982 19.1677 10.6048 19.1602 10.814 19.1602C11.0231 19.1602 11.2297 19.1677 11.4346 19.1837C11.4413 19.2173 11.4439 19.2509 11.4439 19.2861Z" fill="white"/>
<path d="M11.4439 34.8855V35.4734C11.4439 35.5087 11.4413 35.5423 11.4346 35.5759C11.2297 35.5918 11.0231 35.5994 10.814 35.5994C10.6048 35.5994 10.3982 35.5918 10.1933 35.5759C10.1866 35.5423 10.1841 35.5087 10.1841 35.4734V34.8855C10.1841 34.5378 10.4663 34.2556 10.814 34.2556C11.1617 34.2556 11.4439 34.5378 11.4439 34.8855Z" fill="white"/>
<path d="M8.46302 20.918C8.39163 20.9441 8.3194 20.9567 8.24802 20.9567C7.99018 20.9567 7.74915 20.7979 7.65593 20.5418L7.4552 19.99C7.44345 19.9572 7.43421 19.9236 7.42749 19.8909C7.8029 19.7204 8.19259 19.5776 8.59487 19.4651C8.61167 19.4953 8.62679 19.5264 8.63854 19.5592L8.83927 20.1109C8.95852 20.4376 8.78972 20.7996 8.46302 20.918Z" fill="white"/>
<path d="M14.2025 34.8686C13.8271 35.0383 13.4366 35.1819 13.0343 35.2944C13.0175 35.265 13.0024 35.2331 12.9906 35.2004L12.7899 34.6486C12.6715 34.3219 12.8394 33.9599 13.167 33.8415C13.4937 33.7222 13.8548 33.891 13.9741 34.2177L14.1748 34.7695C14.1865 34.8023 14.1958 34.8359 14.2025 34.8686Z" fill="white"/>
<path d="M6.39442 22.1122C6.27685 22.2113 6.13323 22.2591 5.99046 22.2591C5.81073 22.2591 5.63185 22.1827 5.50755 22.0349L5.12962 21.5847C5.10778 21.5595 5.08931 21.5327 5.07251 21.505C5.36897 21.2144 5.68644 20.9473 6.02405 20.7046C6.04925 20.7247 6.07276 20.7491 6.0946 20.7751L6.47253 21.2245C6.69593 21.4915 6.66149 21.8888 6.39442 22.1122Z" fill="white"/>
<path d="M16.5567 33.2543C16.2602 33.5449 15.9419 33.8128 15.6043 34.0555C15.5791 34.0337 15.5564 34.0102 15.5346 33.9841L15.1575 33.5348C14.9332 33.2678 14.9685 32.8705 15.2347 32.6471C15.501 32.4237 15.8982 32.4582 16.1225 32.7244L16.4995 33.1745C16.5214 33.1997 16.5399 33.2266 16.5567 33.2543Z" fill="white"/>
<path d="M4.8604 23.9414C4.74366 24.1438 4.53202 24.2563 4.3145 24.2563C4.207 24.2563 4.09866 24.2295 3.99956 24.1724L3.49146 23.8784C3.46122 23.8608 3.43351 23.8415 3.40747 23.8205V23.8196C3.58888 23.4442 3.79716 23.0856 4.03064 22.7446C4.06171 22.7564 4.09194 22.7707 4.12134 22.7875L4.62944 23.0814C4.93095 23.2553 5.03425 23.6407 4.8604 23.9414Z" fill="white"/>
<path d="M18.2224 30.939C18.041 31.3144 17.8327 31.6738 17.5984 32.0148C17.5682 32.0031 17.5379 31.9888 17.5086 31.972L16.9996 31.678C16.6989 31.5042 16.5956 31.1196 16.7695 30.818C16.9433 30.5165 17.3288 30.4132 17.6295 30.5871L18.1384 30.881C18.1687 30.8987 18.1964 30.918 18.2224 30.939Z" fill="white"/>
<path d="M4.04297 26.1855C3.98922 26.4912 3.72383 26.7062 3.42316 26.7062C3.38705 26.7062 3.3501 26.7029 3.31314 26.697L2.73533 26.5945C2.7009 26.5886 2.66814 26.5794 2.63623 26.5685C2.67654 26.1502 2.74961 25.7412 2.85123 25.344C2.88482 25.3448 2.91926 25.3482 2.95369 25.3541L3.53234 25.4557C3.875 25.5162 4.10344 25.8429 4.04297 26.1855Z" fill="white"/>
<path d="M18.9942 28.1911C18.9538 28.6094 18.8808 29.0184 18.7792 29.4156C18.7456 29.4148 18.7103 29.4123 18.6759 29.4056L18.098 29.3039C17.7554 29.2435 17.5261 28.9168 17.5866 28.5741C17.647 28.2315 17.9737 28.0022 18.3164 28.0627L18.8951 28.1651C18.9295 28.171 18.9622 28.1802 18.9942 28.1911Z" fill="white"/>
<path d="M3.53234 29.3039L2.95369 29.4056C2.91926 29.4114 2.88482 29.4148 2.85123 29.4156C2.74961 29.0184 2.67654 28.6094 2.63623 28.1911C2.66814 28.1802 2.7009 28.171 2.73533 28.1651L3.31314 28.0627C3.6558 28.0022 3.9825 28.2315 4.04297 28.5741C4.10344 28.9168 3.875 29.2435 3.53234 29.3039Z" fill="white"/>
<path d="M18.9942 26.5685C18.9622 26.5794 18.9295 26.5886 18.8951 26.5945L18.3164 26.697C18.2794 26.7029 18.2425 26.7062 18.2064 26.7062C17.9066 26.7062 17.6403 26.4912 17.5866 26.1855C17.5261 25.8429 17.7554 25.5162 18.098 25.4557L18.6759 25.3541C18.7103 25.3474 18.7456 25.3448 18.7792 25.344C18.8808 25.7412 18.9538 26.1502 18.9942 26.5685Z" fill="white"/>
<path d="M4.62944 31.678L4.12134 31.972C4.09194 31.9888 4.06171 32.0031 4.03064 32.0148C3.79716 31.6738 3.58888 31.3152 3.40747 30.9398V30.939C3.43351 30.918 3.46122 30.8987 3.49146 30.881L3.99956 30.5871C4.30106 30.4132 4.68655 30.5165 4.8604 30.818C5.03425 31.1187 4.93095 31.5042 4.62944 31.678Z" fill="white"/>
<path d="M18.2224 23.8205C18.1964 23.8415 18.1687 23.8608 18.1384 23.8784L17.6295 24.1724C17.5304 24.2295 17.422 24.2563 17.3154 24.2563C17.0979 24.2563 16.8862 24.1438 16.7695 23.9414C16.5956 23.6407 16.6989 23.2553 16.9996 23.0814L17.5086 22.7875C17.5379 22.7707 17.5682 22.7564 17.5984 22.7446C17.8327 23.0856 18.041 23.4451 18.2224 23.8205Z" fill="white"/>
<path d="M6.47253 33.5349L6.0946 33.9843C6.07276 34.0103 6.05009 34.0338 6.02489 34.0556C5.68728 33.8129 5.36897 33.545 5.07251 33.2544C5.08931 33.2267 5.10778 33.1998 5.12962 33.1746L5.50755 32.7245C5.73095 32.4583 6.12819 32.423 6.39442 32.6472C6.66149 32.8706 6.69593 33.2679 6.47253 33.5349Z" fill="white"/>
<path d="M16.5567 21.505C16.5399 21.5327 16.5214 21.5595 16.4995 21.5847L16.1225 22.0349C15.9973 22.1827 15.8193 22.2591 15.6395 22.2591C15.4968 22.2591 15.3532 22.2113 15.2347 22.1122C14.9685 21.8888 14.9332 21.4915 15.1575 21.2245L15.5346 20.7751C15.5564 20.7491 15.5799 20.7247 15.6051 20.7046C15.9427 20.9473 16.2602 21.2144 16.5567 21.505Z" fill="white"/>
<path d="M8.83927 34.6486L8.63854 35.2004C8.62679 35.2331 8.61167 35.265 8.59487 35.2944C8.19259 35.1819 7.8029 35.0391 7.42749 34.8686C7.43421 34.8359 7.44345 34.8023 7.4552 34.7695L7.65593 34.2177C7.77435 33.891 8.13632 33.7222 8.46302 33.8415C8.78972 33.9599 8.95852 34.3219 8.83927 34.6486Z" fill="white"/>
<path d="M14.203 19.8909C14.1963 19.9236 14.187 19.9572 14.1753 19.99L13.9746 20.5418C13.8813 20.7979 13.6395 20.9567 13.3825 20.9567C13.3111 20.9567 13.238 20.9441 13.1666 20.918C12.8399 20.7996 12.672 20.4376 12.7904 20.1109L12.9911 19.5592C13.0029 19.5264 13.018 19.4953 13.0348 19.4651C13.4371 19.5776 13.8276 19.7212 14.203 19.8909Z" fill="white"/>
<path d="M32.8147 24.0918V24.6788C32.8147 25.0274 32.5325 25.3087 32.1848 25.3087C31.8363 25.3087 31.5549 25.0274 31.5549 24.6788V24.0918C31.5549 24.0565 31.5574 24.0229 31.5642 23.9893C31.7691 23.9734 31.9757 23.9658 32.1848 23.9658C32.3939 23.9658 32.6005 23.9734 32.8055 23.9893C32.8122 24.0229 32.8147 24.0565 32.8147 24.0918Z" fill="white"/>
<path d="M32.8147 39.6909V40.278C32.8147 40.3132 32.8122 40.3468 32.8055 40.3804C32.6005 40.3964 32.3939 40.4039 32.1848 40.4039C31.9757 40.4039 31.7691 40.3964 31.5642 40.3804C31.5574 40.3468 31.5549 40.3132 31.5549 40.278V39.6909C31.5549 39.3432 31.8363 39.061 32.1848 39.061C32.5325 39.061 32.8147 39.3432 32.8147 39.6909Z" fill="white"/>
<path d="M29.8322 25.7237C29.7616 25.7497 29.6885 25.7623 29.6172 25.7623C29.3602 25.7623 29.1183 25.6027 29.0251 25.3474L28.8243 24.7957C28.8126 24.7629 28.8033 24.7293 28.7966 24.6966C29.172 24.5269 29.5626 24.3833 29.9649 24.2708C29.9817 24.3001 29.9968 24.332 30.0085 24.3648L30.2092 24.9166C30.3277 25.2433 30.1597 25.6044 29.8322 25.7237Z" fill="white"/>
<path d="M35.571 39.6735C35.1965 39.8439 34.8068 39.9867 34.4045 40.0993C34.3877 40.0699 34.3726 40.0388 34.3608 40.006L34.1601 39.4543C34.0408 39.1267 34.2097 38.7656 34.5364 38.6463C34.8631 38.5279 35.225 38.6959 35.3434 39.0234L35.5442 39.5752C35.5559 39.6079 35.5652 39.6407 35.571 39.6735Z" fill="white"/>
<path d="M27.7654 26.9178C27.647 27.0169 27.5034 27.0648 27.3606 27.0648C27.1809 27.0648 27.0028 26.9884 26.8777 26.8397L26.5006 26.3904C26.4788 26.3644 26.4603 26.3375 26.4443 26.3098C26.74 26.02 27.0583 25.7521 27.395 25.5103C27.4202 25.5304 27.4437 25.5548 27.4656 25.5808L27.8427 26.0301C28.0669 26.2972 28.0316 26.6944 27.7654 26.9178Z" fill="white"/>
<path d="M37.9275 38.06C37.631 38.3506 37.3127 38.6185 36.9751 38.8612C36.9499 38.8394 36.9273 38.8159 36.9054 38.7898L36.5275 38.3397C36.3041 38.0734 36.3385 37.6762 36.6048 37.4528C36.8718 37.2294 37.2691 37.2638 37.4925 37.53L37.8704 37.9802C37.8922 38.0054 37.9107 38.0323 37.9275 38.06Z" fill="white"/>
<path d="M26.2305 28.7471C26.1138 28.9495 25.9021 29.062 25.6846 29.062C25.578 29.062 25.4696 29.0351 25.3705 28.978L24.8616 28.6841C24.8313 28.6664 24.8036 28.6471 24.7776 28.6261C24.959 28.2507 25.1673 27.8913 25.4016 27.5503C25.4318 27.5621 25.4621 27.5763 25.4915 27.5931L26.0004 27.8862C26.3011 28.0609 26.4044 28.4456 26.2305 28.7471Z" fill="white"/>
<path d="M39.593 35.7447V35.7455L38.9698 36.8205C38.9388 36.8088 38.9085 36.7945 38.8791 36.7777L38.371 36.4837C38.0695 36.3099 37.9662 35.9244 38.1401 35.6229C38.3139 35.3222 38.6994 35.2189 39.0009 35.3928L39.509 35.6867C39.5392 35.7044 39.567 35.7237 39.593 35.7447Z" fill="white"/>
<path d="M25.4134 30.9912C25.3597 31.2969 25.0935 31.5119 24.7936 31.5119C24.7575 31.5119 24.7206 31.5085 24.6836 31.5018L24.105 31.4002C24.0705 31.3943 24.0378 31.3851 24.0059 31.3742C24.0462 30.9559 24.1192 30.5469 24.2209 30.1497C24.2545 30.1505 24.2889 30.1539 24.3242 30.1597L24.902 30.2614C25.2446 30.3218 25.4739 30.6485 25.4134 30.9912Z" fill="white"/>
<path d="M40.3637 32.9966C40.3234 33.4148 40.2503 33.823 40.1487 34.2202C40.1151 34.2194 40.0807 34.2169 40.0462 34.211L39.4676 34.1085C39.1249 34.0481 38.8965 33.7214 38.957 33.3795C39.0174 33.0369 39.3441 32.8076 39.6868 32.8681L40.2646 32.9705C40.299 32.9764 40.3318 32.9848 40.3637 32.9966Z" fill="white"/>
<path d="M24.902 34.1085L24.3242 34.211C24.2897 34.2169 24.2545 34.2194 24.2209 34.2202C24.1192 33.823 24.0462 33.4148 24.0059 32.9966C24.0378 32.9848 24.0705 32.9764 24.105 32.9705L24.6836 32.8681C25.0263 32.8076 25.353 33.0369 25.4134 33.3795C25.4739 33.7214 25.2446 34.0481 24.902 34.1085Z" fill="white"/>
<path d="M40.3637 31.3742C40.3318 31.3851 40.299 31.3943 40.2646 31.4002L39.6868 31.5018C39.6498 31.5085 39.6129 31.5119 39.5768 31.5119C39.2761 31.5119 39.0107 31.2969 38.957 30.9912C38.8965 30.6485 39.1249 30.3218 39.4676 30.2614L40.0462 30.1597C40.0807 30.1539 40.1151 30.1505 40.1487 30.1497C40.2503 30.5469 40.3234 30.9559 40.3637 31.3742Z" fill="white"/>
<path d="M26.0004 36.4837L25.4915 36.7777C25.4621 36.7945 25.4318 36.8088 25.4016 36.8205C25.1673 36.4796 24.959 36.1201 24.7776 35.7447C24.8036 35.7237 24.8313 35.7044 24.8616 35.6867L25.3705 35.3928C25.672 35.2189 26.0567 35.3222 26.2305 35.6229C26.4044 35.9244 26.3019 36.3099 26.0004 36.4837Z" fill="white"/>
<path d="M39.593 28.6253V28.6261C39.567 28.6471 39.5392 28.6664 39.509 28.6841L39.0009 28.978C38.9018 29.0351 38.7935 29.062 38.686 29.062C38.4684 29.062 38.2568 28.9495 38.1401 28.7471C37.9662 28.4456 38.0695 28.0609 38.371 27.8862L38.8791 27.5931C38.9085 27.5763 38.9388 27.5621 38.9698 27.5503C39.2033 27.8904 39.4116 28.2499 39.593 28.6253Z" fill="white"/>
<path d="M27.8428 38.3398L27.4657 38.7899C27.4439 38.8159 27.4212 38.8395 27.396 38.8613C27.0584 38.6186 26.7401 38.3507 26.4436 38.0601C26.4604 38.0324 26.4789 38.0055 26.5007 37.9803L26.8778 37.5301C27.1012 37.2639 27.4984 37.2286 27.7655 37.4529C28.0317 37.6763 28.067 38.0735 27.8428 38.3398Z" fill="white"/>
<path d="M37.9267 26.3099C37.9107 26.3376 37.8922 26.3645 37.8704 26.3905L37.4925 26.8398C37.3682 26.9885 37.1893 27.0649 37.0096 27.0649C36.8668 27.0649 36.7232 27.017 36.6048 26.9179C36.3385 26.6937 36.3041 26.2965 36.5275 26.0302L36.9054 25.5801C36.9273 25.554 36.9499 25.5305 36.9751 25.5095C37.3127 25.7522 37.6302 26.0193 37.9267 26.3099Z" fill="white"/>
<path d="M30.2099 39.4543L30.0091 40.006C29.9974 40.0388 29.9823 40.0699 29.9655 40.0993C29.5632 39.9867 29.1727 39.8439 28.7981 39.6735C28.804 39.6407 28.8132 39.6079 28.825 39.5752L29.0257 39.0234C29.1449 38.6959 29.5061 38.5279 29.8328 38.6463C30.1603 38.7656 30.3283 39.1267 30.2099 39.4543Z" fill="white"/>
<path d="M35.5719 24.6966C35.5652 24.7293 35.5559 24.7629 35.5442 24.7957L35.3434 25.3474C35.2502 25.6027 35.0092 25.7623 34.7513 25.7623C34.68 25.7623 34.6077 25.7497 34.5364 25.7237C34.2097 25.6044 34.0408 25.2433 34.1601 24.9166L34.3608 24.3648C34.3726 24.3321 34.3869 24.3001 34.4037 24.2708C34.8068 24.3833 35.1965 24.5261 35.5719 24.6966Z" fill="white"/>
<path d="M34.7283 34.5293H32.024V32.6427C32.2504 32.5867 32.5034 32.5245 32.7865 32.4557C33.1246 32.3735 33.332 32.0329 33.2499 31.6948C33.1677 31.3568 32.8272 31.1491 32.489 31.2314C32.324 31.2716 32.1696 31.3093 32.024 31.3451V28.6831C32.024 28.3352 31.742 28.0532 31.3941 28.0532C31.0461 28.0532 30.7642 28.3352 30.7642 28.6831V31.6606C30.195 31.8068 29.9874 31.8671 29.9736 31.8712C29.6397 31.9688 29.4485 32.3184 29.5459 32.6523C29.6261 32.9272 29.8776 33.1057 30.1504 33.1057C30.2086 33.1057 30.268 33.0975 30.3269 33.0804C30.3294 33.0796 30.452 33.0442 30.7642 32.9622V35.159C30.7642 35.507 31.0461 35.7889 31.3941 35.7889H34.7283C35.0762 35.7889 35.3581 35.507 35.3581 35.159C35.3581 34.8111 35.0761 34.5293 34.7283 34.5293Z" fill="white"/>
<path d="M13.3564 27.3735L10.863 26.756C10.8316 26.7482 10.7988 26.7482 10.7673 26.756L8.27395 27.3735C8.10027 27.4165 7.96237 27.2264 8.05736 27.0746L10.6463 22.9384C10.7244 22.8138 10.9059 22.8138 10.9839 22.9384L13.5729 27.0746C13.6679 27.2264 13.5301 27.4166 13.3564 27.3735Z" fill="white"/>
<path d="M8.51979 28.2384L10.7372 27.2485C10.7867 27.2264 10.8433 27.2264 10.8928 27.2485L13.1102 28.2384C13.228 28.291 13.2608 28.4429 13.175 28.5394L10.9576 31.0341C10.8817 31.1195 10.7483 31.1195 10.6724 31.0341L8.45496 28.5394C8.36929 28.4429 8.40196 28.291 8.51979 28.2384Z" fill="white"/>
</g>
<defs>
<clipPath id="clip0">
<rect width="43" height="43" fill="white"/>
</clipPath>
</defs>
</svg>
