<svg width="38" height="38" viewBox="0 0 38 38" fill="none" xmlns="http://www.w3.org/2000/svg">
<g clip-path="url(#clip0)">
<path d="M26.8375 14.6775H23.0754V9.34789C23.0754 8.25977 22.6513 7.23591 21.8813 6.46506C21.1119 5.69639 20.088 5.27236 18.9998 5.27236C16.7525 5.27236 14.9242 7.10067 14.9242 9.34797V14.6776H11.1621V9.34797C11.1621 5.02628 14.6781 1.51025 18.9998 1.51025C21.0921 1.51025 23.0601 2.3251 24.5415 3.80487C26.0226 5.28758 26.8375 7.25565 26.8375 9.34797V14.6775Z" fill="#627087"/>
<path d="M20.1517 1.59374C16.3707 2.14955 13.4585 5.41536 13.4585 9.34797V14.6778H11.1619V9.34797C11.1619 5.02643 14.678 1.51025 18.9996 1.51025C19.3893 1.51025 19.7735 1.53858 20.1517 1.59374Z" fill="#465166"/>
<path d="M28.7184 14.4958V30.2843C28.7184 30.9458 28.1827 31.4815 27.5212 31.4815H10.479C9.81746 31.4815 9.28101 30.9458 9.28101 30.2843V14.4958C9.28101 13.8343 9.81746 13.2979 10.479 13.2979H27.5212C28.1827 13.2979 28.7184 13.8343 28.7184 14.4958Z" fill="#E41139"/>
<path d="M20.9536 27.0118H17.0462C16.8289 27.0118 16.6604 26.8235 16.6841 26.6076L17.2735 21.3648C17.2854 21.2586 17.259 21.1523 17.2011 21.0625C16.9647 20.6959 16.8373 20.252 16.8655 19.7762C16.9289 18.7091 17.7962 17.839 18.8632 17.7728C20.1064 17.6956 21.1381 18.6803 21.1381 19.9067C21.1381 20.3329 21.0133 20.7293 20.799 21.0621C20.741 21.1521 20.7144 21.2585 20.7263 21.3649L21.3157 26.6076C21.3394 26.8234 21.1709 27.0118 20.9536 27.0118Z" fill="#554E56"/>
<path d="M12.7197 31.4815H10.479C9.81746 31.4815 9.28101 30.9458 9.28101 30.2843V14.4958C9.28101 13.8343 9.81746 13.2979 10.479 13.2979H12.7197C12.0477 13.2979 11.5022 13.8433 11.5022 14.5154V30.2647C11.5022 30.9367 12.0477 31.4815 12.7197 31.4815Z" fill="#C70025"/>
<path d="M38 26.454V34.6665C38 35.6731 37.1833 36.4899 36.1759 36.4899H1.82334C0.815981 36.4899 0 35.6731 0 34.6665V26.454C0 25.4466 0.815981 24.6299 1.82334 24.6299H36.1759C37.1833 24.6299 38 25.4466 38 26.454Z" fill="#EDEFF7"/>
<path d="M4.07388 36.4899H1.82334C0.815981 36.4899 0 35.6731 0 34.6665V26.454C0 25.4466 0.815981 24.6299 1.82334 24.6299H4.07388C3.0507 24.6299 2.2204 25.4594 2.2204 26.4834V34.6371C2.2204 35.6611 3.0507 36.4899 4.07388 36.4899Z" fill="#1F2633"/>
<path d="M8.54691 31.7874L6.94312 30.8614L8.54691 29.9355C8.81717 29.7794 8.90977 29.4338 8.75373 29.1636C8.59761 28.8933 8.25201 28.8006 7.98182 28.9567L6.37804 29.8827V28.0309C6.37804 27.7188 6.12503 27.4658 5.81296 27.4658C5.50088 27.4658 5.24787 27.7188 5.24787 28.0309V29.8827L3.64409 28.9568C3.37383 28.8007 3.02822 28.8933 2.87219 29.1636C2.71615 29.4339 2.80875 29.7795 3.07901 29.9355L4.68279 30.8615L3.07901 31.7875C2.80875 31.9435 2.71615 32.2892 2.87219 32.5594C2.97684 32.7407 3.16678 32.842 3.36208 32.842C3.45791 32.842 3.55511 32.8176 3.64409 32.7662L5.24787 31.8403V33.6921C5.24787 34.0042 5.50088 34.2572 5.81296 34.2572C6.12503 34.2572 6.37804 34.0042 6.37804 33.6921V31.8403L7.98182 32.7662C8.07081 32.8176 8.168 32.842 8.26384 32.842C8.45913 32.842 8.64907 32.7407 8.75373 32.5594C8.90984 32.2891 8.81717 31.9434 8.54691 31.7874Z" fill="#1F2633"/>
<path d="M26.1128 31.7875L24.509 30.8615L26.1128 29.9355C26.3831 29.7795 26.4757 29.4339 26.3196 29.1636C26.1636 28.8934 25.818 28.8007 25.5477 28.9568L23.944 29.8827V28.0309C23.944 27.7188 23.691 27.4658 23.3789 27.4658C23.0668 27.4658 22.8138 27.7188 22.8138 28.0309V29.8827L21.21 28.9568C20.9397 28.8007 20.5941 28.8933 20.4381 29.1636C20.2821 29.4339 20.3747 29.7795 20.6449 29.9355L22.2487 30.8615L20.6449 31.7875C20.3747 31.9435 20.2821 32.2891 20.4381 32.5594C20.5428 32.7407 20.7327 32.842 20.928 32.842C21.0238 32.842 21.121 32.8176 21.21 32.7662L22.8138 31.8403V33.6921C22.8138 34.0042 23.0668 34.2572 23.3789 34.2572C23.691 34.2572 23.944 34.0042 23.944 33.6921V31.8403L25.5477 32.7662C25.6367 32.8176 25.7339 32.842 25.8298 32.842C26.025 32.842 26.215 32.7407 26.3196 32.5594C26.4758 32.2891 26.3832 31.9435 26.1128 31.7875Z" fill="#1F2633"/>
<path d="M17.3296 31.7875L15.7258 30.8615L17.3296 29.9355C17.5999 29.7795 17.6925 29.4339 17.5364 29.1636C17.3804 28.8934 17.0348 28.8007 16.7645 28.9568L15.1608 29.8827V28.0309C15.1608 27.7188 14.9078 27.4658 14.5957 27.4658C14.2836 27.4658 14.0306 27.7188 14.0306 28.0309V29.8827L12.4268 28.9568C12.1565 28.8007 11.8109 28.8933 11.6549 29.1636C11.4989 29.4339 11.5915 29.7795 11.8617 29.9355L13.4655 30.8615L11.8617 31.7875C11.5915 31.9435 11.4989 32.2891 11.6549 32.5594C11.7596 32.7407 11.9495 32.842 12.1448 32.842C12.2406 32.842 12.3378 32.8176 12.4268 32.7662L14.0306 31.8403V33.6921C14.0306 34.0042 14.2836 34.2572 14.5957 34.2572C14.9078 34.2572 15.1608 34.0042 15.1608 33.6921V31.8403L16.7645 32.7662C16.8535 32.8176 16.9507 32.842 17.0466 32.842C17.2419 32.842 17.4318 32.7407 17.5364 32.5594C17.6925 32.2891 17.5999 31.9435 17.3296 31.7875Z" fill="#1F2633"/>
<path d="M34.6605 31.5982L33.0955 30.6946L34.6605 29.7911C34.9307 29.6351 35.0233 29.2894 34.8673 29.0192C34.7112 28.7489 34.3656 28.6563 34.0954 28.8124L32.5304 29.7159V27.9088C32.5304 27.5968 32.2774 27.3438 31.9653 27.3438C31.6532 27.3438 31.4002 27.5968 31.4002 27.9088V29.716L29.8353 28.8124C29.565 28.6563 29.2194 28.749 29.0633 29.0193C28.9073 29.2895 28.9999 29.6351 29.2702 29.7912L30.8351 30.6947L29.2702 31.5982C28.9999 31.7543 28.9073 32.0999 29.0633 32.3701C29.168 32.5514 29.3579 32.6528 29.5532 32.6528C29.6491 32.6528 29.7463 32.6283 29.8353 32.577L31.4002 31.6734V33.4806C31.4002 33.7926 31.6532 34.0457 31.9653 34.0457C32.2774 34.0457 32.5304 33.7926 32.5304 33.4806V31.6735L34.0954 32.577C34.1844 32.6284 34.2816 32.6528 34.3774 32.6528C34.5727 32.6528 34.7626 32.5514 34.8673 32.3702C35.0234 32.0998 34.9308 31.7542 34.6605 31.5982Z" fill="#1F2633"/>
</g>
<defs>
<clipPath id="clip0">
<rect width="38" height="38" fill="white"/>
</clipPath>
</defs>
</svg>
