<svg width="40" height="40" viewBox="0 0 40 40" fill="none" xmlns="http://www.w3.org/2000/svg">
<path d="M38.75 14.375V15L20 26.25L1.25 15V14.375L7.5 10.625H32.5L38.75 14.375Z" fill="#465166"/>
<path d="M7.5 1.875H32.5V26.25H7.5V1.875Z" fill="white"/>
<path d="M38.75 15V38.125H1.25V15L20 26.25L38.75 15Z" fill="#627087"/>
<path d="M20 8.75C21.0355 8.75 21.875 7.91053 21.875 6.875C21.875 5.83947 21.0355 5 20 5C18.9645 5 18.125 5.83947 18.125 6.875C18.125 7.91053 18.9645 8.75 20 8.75Z" fill="#E41139"/>
<path d="M18.125 10.625H21.875V20.625H18.125V10.625Z" fill="#E41139"/>
</svg>
