<svg width="37" height="37" viewBox="0 0 37 37" fill="none" xmlns="http://www.w3.org/2000/svg">
<path d="M27.6794 3.25195V33.748C27.6794 35.541 26.2204 37 24.4275 37H3.25366C1.46075 37 0.00170898 35.541 0.00170898 33.748V3.25195C0.00170898 1.45904 1.46075 0 3.25366 0H24.4275C26.2204 0 27.6794 1.45904 27.6794 3.25195Z" fill="white"/>
<path d="M27.678 3.25195V33.748C27.678 35.541 26.2189 37 24.426 37H13.8752V0H24.426C26.2189 0 27.678 1.45904 27.678 3.25195Z" fill="#E1EBF0"/>
<path d="M23.053 8.09375C23.053 8.69211 22.5674 9.17773 21.969 9.17773H5.78149C5.18313 9.17773 4.69751 8.69211 4.69751 8.09375C4.69751 7.49539 5.18313 7.00977 5.78149 7.00977H21.969C22.5674 7.00977 23.053 7.49539 23.053 8.09375Z" fill="#465166"/>
<path d="M23.053 8.09375C23.053 8.69211 22.5674 9.17773 21.969 9.17773H13.803V7.00977H21.969C22.5674 7.00977 23.053 7.49539 23.053 8.09375Z" fill="#1E1E1E"/>
<path d="M19.5842 13.875C19.5842 14.4734 19.0986 14.959 18.5002 14.959H5.78149C5.18313 14.959 4.69751 14.4734 4.69751 13.875C4.69751 13.2766 5.18313 12.791 5.78149 12.791H18.5002C19.0986 12.791 19.5842 13.2766 19.5842 13.875Z" fill="#465166"/>
<path d="M19.5842 13.875C19.5842 14.4734 19.0986 14.959 18.5002 14.959H13.803V12.791H18.5002C19.0986 12.791 19.5842 13.2766 19.5842 13.875Z" fill="#1E1E1E"/>
<path d="M16.1155 19.6562C16.1155 20.2546 15.6299 20.7402 15.0315 20.7402H5.78149C5.18313 20.7402 4.69751 20.2546 4.69751 19.6562C4.69751 19.0579 5.18313 18.5723 5.78149 18.5723H15.0315C15.6299 18.5723 16.1155 19.0579 16.1155 19.6562Z" fill="#465166"/>
<path d="M16.1155 19.6562C16.1155 20.2546 15.6299 20.7402 15.0315 20.7402H13.803V18.5723H15.0315C15.6299 18.5723 16.1155 19.0579 16.1155 19.6562Z" fill="#1E1E1E"/>
<path d="M36.6995 16.136C36.5644 16.3644 36.1127 16.8283 33.0862 19.8151C31.3323 21.5458 28.7134 24.125 24.7909 27.997C24.6022 28.1841 25.0286 27.9558 18.3556 31.0697C17.4342 31.5011 16.4904 30.5378 16.9146 29.6287C20.0336 22.9463 19.7995 23.3799 19.9924 23.1891C23.902 19.2796 26.4992 16.6809 28.2256 14.9545C31.5809 11.5977 31.6467 11.5341 31.6546 11.5428C32.524 10.8404 33.7735 10.9098 34.5554 11.6917C36.5138 13.6501 36.4191 13.5482 36.5138 13.666C37.0688 14.3424 37.1707 15.3317 36.6995 16.136Z" fill="#7D8798"/>
<path d="M36.6996 16.136C36.4864 16.4966 35.4819 17.4447 24.791 27.9969C24.6024 28.1841 25.0287 27.9557 18.3557 31.0697C18.209 31.1383 18.0522 31.1715 17.8975 31.1715C17.5976 31.1715 17.336 31.0538 17.1453 30.868L35.4393 12.5747C36.4843 13.6189 36.4358 13.5691 36.5139 13.6659C37.0689 14.3423 37.1708 15.3316 36.6996 16.136Z" fill="#465166"/>
<path d="M36.6999 16.136C36.5648 16.3644 36.1131 16.8283 33.0867 19.8151L33.0809 19.81L30.6426 17.3718L28.2261 14.9559V14.9545C31.5814 11.5977 31.6471 11.5341 31.6551 11.5428C32.5244 10.8404 33.7739 10.9098 34.5558 11.6917C34.915 12.0508 35.2048 12.3406 35.4396 12.5748C36.486 13.6205 36.4369 13.5699 36.5142 13.666C37.0692 14.3424 37.1711 15.3317 36.6999 16.136Z" fill="#E41139"/>
<path d="M36.6996 16.136C36.5645 16.3643 36.1128 16.8283 33.0864 19.815L33.0806 19.8099L30.6423 17.3717L35.4393 12.5747C36.4857 13.6204 36.4366 13.5698 36.5139 13.6659C37.0689 14.3423 37.1708 15.3316 36.6996 16.136Z" fill="#C70025"/>
</svg>
