<svg width="38" height="38" viewBox="0 0 38 38" fill="none" xmlns="http://www.w3.org/2000/svg">
<path d="M31.2466 12.3203C31.2466 5.56782 25.753 0 19.0005 0C12.248 0 6.75439 5.56782 6.75439 12.3203V13.4336L8.98096 14.5938L6.75439 15.6602V30.5786H19.0005H31.2466V15.6602L29.02 14.5938L31.2466 13.4336V12.3203Z" fill="#7D8798"/>
<path d="M31.2461 15.6602L29.0195 14.5938L31.2461 13.4336V12.3203C31.2461 5.56782 25.7525 0 19 0V30.5786H31.2461V15.6602Z" fill="#465166"/>
<path d="M34.9665 30.9537L23.4531 26.7668L20.3697 31.7037L19 38H34.5859C35.2013 38 35.6992 37.5021 35.6992 36.8867V31.9995C35.6992 31.5309 35.4068 31.1135 34.9665 30.9537Z" fill="#C70025"/>
<path d="M3.03403 30.9537C2.59369 31.1135 2.30127 31.5309 2.30127 31.9995V36.8867C2.30127 37.5021 2.7992 38 3.41455 38H19.0005L17.4297 31.1999L14.5474 26.7668L3.03403 30.9537Z" fill="#E41139"/>
<path d="M19 20.1133H14.5469V26.7668L15.4458 29.0195L17.6963 30.1328H19H20.6758L22.5542 29.0195L23.4531 26.7668V20.1133H19Z" fill="#FFE6E1"/>
<path d="M22.5542 29.0195L23.4531 26.7668V20.1133H19V30.1328H20.6758L22.5542 29.0195Z" fill="#FDD8D0"/>
<path d="M13.4341 17.8867H8.98096C7.75123 17.8867 6.75439 16.8899 6.75439 15.6602V13.4336C6.75439 12.2039 7.75123 11.207 8.98096 11.207H12.3208L13.4341 17.8867Z" fill="#1E1E1E"/>
<path d="M29.02 17.8867H24.5669L25.6802 11.207H29.02C30.2498 11.207 31.2466 12.2039 31.2466 13.4336V15.6602C31.2466 16.8899 30.2498 17.8867 29.02 17.8867Z" fill="#1E1E1E"/>
<path d="M25.6802 11.2072H23.4536C21.6278 11.2072 20.0248 10.3165 19.0005 8.93604C17.9762 10.3165 16.3731 11.2072 14.5474 11.2072H12.3208C11.6973 11.2072 11.2075 11.697 11.2075 12.3205C11.2075 14.3478 11.5361 16.2178 12.0711 17.8869L15.6606 19.0002L12.9958 20.1135C14.415 22.8249 16.5461 24.5666 19.0005 24.5666C23.3646 24.5666 26.7935 19.1782 26.7935 12.3205C26.7935 11.697 26.3037 11.2072 25.6802 11.2072Z" fill="#FFF3F1"/>
<path d="M26.793 12.3205C26.793 11.697 26.3032 11.2072 25.6797 11.2072H23.4531C21.6273 11.2072 20.0243 10.3165 19 8.93604V24.5666C23.3641 24.5666 26.793 19.1782 26.793 12.3205Z" fill="#FDE4DF"/>
<path d="M19.0002 17.8867H12.0708C12.3277 18.6884 12.6374 19.4288 12.9956 20.1133H19.0002C19.6151 20.1133 20.1135 19.6148 20.1135 19C20.1135 18.385 19.6151 17.8867 19.0002 17.8867Z" fill="#1E1E1E"/>
<path d="M20.1133 19C20.1133 18.385 19.6148 17.8867 19 17.8867V20.1133C19.6148 20.1133 20.1133 19.6148 20.1133 19Z" fill="black"/>
<path d="M18.9995 29.0195H15.4453L18.9995 38L22.5537 29.0195H18.9995Z" fill="#2E3542"/>
<path d="M19 29.0195V38L22.5542 29.0195H19Z" fill="#F6FAFF"/>
</svg>
