<svg width="35" height="35" viewBox="0 0 35 35" fill="none" xmlns="http://www.w3.org/2000/svg">
<path d="M35 8.27148V21.6016C35 23.3038 33.626 24.6777 31.9238 24.6777H7.17773C5.47552 24.6777 4.10156 23.3038 4.10156 21.6016V8.27148L6.15234 6.2207H32.9492L35 8.27148Z" fill="#E41139"/>
<path d="M35 8.27148V21.6016C35 23.3038 33.626 24.6777 31.9238 24.6777H19.5508V6.2207H32.9492L35 8.27148Z" fill="#C70025"/>
<path d="M35 5.19531V8.27148H4.10156V5.19531C4.10156 3.4931 5.47552 2.11914 7.17773 2.11914H31.9238C33.626 2.11914 35 3.4931 35 5.19531Z" fill="#627087"/>
<path d="M30.8984 13.3984V14.4238L28.8477 16.4746H2.05078L0 14.4238V13.3984C0 11.6962 1.37396 10.3223 3.07617 10.3223H27.8223C29.5245 10.3223 30.8984 11.6962 30.8984 13.3984Z" fill="#627087"/>
<path d="M30.8984 13.3984V14.4238L28.8477 16.4746H15.4492V10.3223H27.8223C29.5245 10.3223 30.8984 11.6962 30.8984 13.3984Z" fill="#465166"/>
<path d="M35 5.19531V8.27148H19.5508V2.11914H31.9238C33.626 2.11914 35 3.4931 35 5.19531Z" fill="#465166"/>
<path d="M30.8984 14.4238V18.5254L28.8477 20.5762H2.05078L0 18.5254V14.4238H30.8984Z" fill="#8692A9"/>
<path d="M30.8984 14.4238V18.5254L28.8477 20.5762H15.4492V14.4238H30.8984Z" fill="#717F99"/>
<path d="M30.8984 18.5254V29.8047C30.8984 31.5069 29.5245 32.8809 27.8223 32.8809H3.07617C1.37396 32.8809 0 31.5069 0 29.8047V18.5254H30.8984Z" fill="#627087"/>
<path d="M30.8984 18.5254V29.8047C30.8984 31.5069 29.5245 32.8809 27.8223 32.8809H15.4492V18.5254H30.8984Z" fill="#465166"/>
<path d="M7.17773 28.7793C5.48146 28.7793 4.10156 27.3994 4.10156 25.7031C4.10156 24.0069 5.48146 22.627 7.17773 22.627C8.874 22.627 10.2539 24.0069 10.2539 25.7031C10.2539 27.3994 8.874 28.7793 7.17773 28.7793Z" fill="#E41139"/>
<path d="M11.2793 28.7793C9.58303 28.7793 8.20312 27.3994 8.20312 25.7031C8.20312 24.0069 9.58303 22.627 11.2793 22.627C12.9756 22.627 14.3555 24.0069 14.3555 25.7031C14.3555 27.3994 12.9756 28.7793 11.2793 28.7793Z" fill="#FDD8D0"/>
<path d="M25.7734 24.6777H17.502C16.9352 24.6777 16.4766 24.2191 16.4766 23.6523C16.4766 23.0856 16.9352 22.627 17.502 22.627H25.7734C26.3402 22.627 26.7988 23.0856 26.7988 23.6523C26.7988 24.2191 26.3402 24.6777 25.7734 24.6777Z" fill="#717F99"/>
<path d="M25.7734 28.7793H17.502C16.9352 28.7793 16.4766 28.3207 16.4766 27.7539C16.4766 27.1871 16.9352 26.7285 17.502 26.7285H25.7734C26.3402 26.7285 26.7988 27.1871 26.7988 27.7539C26.7988 28.3207 26.3402 28.7793 25.7734 28.7793Z" fill="#717F99"/>
</svg>
