<svg width="36" height="36" viewBox="0 0 36 36" fill="none" xmlns="http://www.w3.org/2000/svg">
<g clip-path="url(#clip0)">
<path d="M33.2407 1.58258V28.2741C33.2407 28.7152 33.0693 29.1308 32.7571 29.4431L26.7544 35.4452C26.4421 35.7575 26.0271 35.9297 25.5855 35.9297H4.53619C3.6246 35.9297 2.8833 35.1876 2.8833 34.276V1.58258C2.8833 0.67099 3.6246 -0.0703125 4.53619 -0.0703125H31.5878C32.4994 -0.0703125 33.2407 0.67099 33.2407 1.58258Z" fill="#627087"/>
<path d="M33.2429 1.58258V28.2741C33.2429 28.7152 33.0715 29.1308 32.7592 29.4431L26.7565 35.4452C26.4442 35.7575 26.0292 35.9297 25.5876 35.9297H18.0669V-0.0703125H31.59C32.5016 -0.0703125 33.2429 0.67099 33.2429 1.58258Z" fill="#465166"/>
<path d="M18.0633 9.35889H18.0606C15.893 9.35889 14.1294 11.1225 14.1294 13.2901V17.8494H21.9918V13.2901C21.9918 11.123 20.2298 9.36053 18.0633 9.35889ZM19.8816 15.7392H16.2396V13.2901C16.2396 12.2856 17.057 11.4691 18.0606 11.4691H18.0633C19.0658 11.4705 19.8816 12.2865 19.8816 13.2901V15.7392Z" fill="#E41139"/>
<path d="M21.9953 13.2901V17.8494H18.0669V15.7392H19.8851V13.2901C19.8851 12.2865 19.0694 11.4705 18.0669 11.4691V9.35889C20.2334 9.36053 21.9953 11.123 21.9953 13.2901Z" fill="#C70025"/>
<path d="M33.2411 27.4668V28.2743C33.2411 28.7154 33.0697 29.1309 32.7574 29.4432L26.7548 35.4453C26.4425 35.7576 26.0275 35.9298 25.5858 35.9298H24.7783V28.697C24.7783 28.0191 25.3304 27.4668 26.0091 27.4668H33.2411Z" fill="#627087"/>
<path d="M23.8177 17.0497V22.7906C23.8177 24.8648 22.1302 26.5531 20.056 26.5531H16.0638C13.9888 26.5531 12.3013 24.8648 12.3013 22.7906V17.0497C12.3013 16.3273 12.8888 15.7393 13.6111 15.7393H22.5081C23.2305 15.7393 23.8177 16.3273 23.8177 17.0497Z" fill="#E41139"/>
<path d="M23.8199 17.0497V22.7906C23.8199 24.8648 22.1324 26.5531 20.0582 26.5531H18.0669V15.7393H22.5103C23.2327 15.7393 23.8199 16.3273 23.8199 17.0497Z" fill="#C70025"/>
</g>
<defs>
<clipPath id="clip0">
<rect width="36" height="36" fill="white"/>
</clipPath>
</defs>
</svg>
