<svg width="61" height="57" viewBox="0 0 61 57" fill="none" xmlns="http://www.w3.org/2000/svg">
<path d="M15.25 17.8125C15.25 16.8293 14.396 16.0312 13.3438 16.0312H1.90625C0.854 16.0312 0 16.8293 0 17.8125C0 18.7957 0.854 19.5938 1.90625 19.5938H13.3438C14.396 19.5938 15.25 18.7957 15.25 17.8125Z" fill="#7D8798"/>
<path d="M13.3438 23.1562H5.71875C4.6665 23.1562 3.8125 23.9543 3.8125 24.9375C3.8125 25.9207 4.6665 26.7188 5.71875 26.7188H13.3438C14.396 26.7188 15.25 25.9207 15.25 24.9375C15.25 23.9543 14.396 23.1562 13.3438 23.1562Z" fill="#7D8798"/>
<path d="M13.3438 30.2812H9.53125C8.479 30.2812 7.625 31.0793 7.625 32.0625C7.625 33.0457 8.479 33.8438 9.53125 33.8438H13.3438C14.396 33.8438 15.25 33.0457 15.25 32.0625C15.25 31.0793 14.396 30.2812 13.3438 30.2812Z" fill="#7D8798"/>
<path d="M60.7293 29.3657L55.0106 20.4594C54.6674 19.9215 54.046 19.5938 53.375 19.5938H40.0312C38.979 19.5938 38.125 20.3918 38.125 21.375V39.1875C38.125 40.1707 38.979 40.9688 40.0312 40.9688H59.0938C60.146 40.9688 61 40.1707 61 39.1875V30.2812C61 29.9571 60.9085 29.64 60.7293 29.3657Z" fill="#E41139"/>
<path d="M45.75 23.1562H52.2961L56.8711 30.2812H45.75V23.1562Z" fill="#FAFAFA"/>
<path d="M40.0312 12.4688H13.3438C12.2915 12.4688 11.4375 13.2668 11.4375 14.25V39.1875C11.4375 40.1707 12.2915 40.9688 13.3438 40.9688H41.9375V14.25C41.9375 13.2668 41.0835 12.4688 40.0312 12.4688Z" fill="#7D8798"/>
<path d="M51.4688 42.75C53.5743 42.75 55.2812 41.155 55.2812 39.1875C55.2812 37.22 53.5743 35.625 51.4688 35.625C49.3632 35.625 47.6562 37.22 47.6562 39.1875C47.6562 41.155 49.3632 42.75 51.4688 42.75Z" fill="#FAFAFA"/>
<path d="M51.4688 44.5312C48.3158 44.5312 45.75 42.1337 45.75 39.1875C45.75 36.2413 48.3158 33.8438 51.4688 33.8438C54.6217 33.8438 57.1875 36.2413 57.1875 39.1875C57.1875 42.1337 54.6217 44.5312 51.4688 44.5312ZM51.4688 37.4062C50.4203 37.4062 49.5625 38.2078 49.5625 39.1875C49.5625 40.1672 50.4203 40.9688 51.4688 40.9688C52.5172 40.9688 53.375 40.1672 53.375 39.1875C53.375 38.2078 52.5172 37.4062 51.4688 37.4062Z" fill="#292931"/>
<path d="M41.9375 40.9688H13.3438C12.2915 40.9688 11.4375 40.1708 11.4375 39.1875V33.8438H41.9375V40.9688Z" fill="#E41139"/>
<path d="M24.7812 42.75C26.8868 42.75 28.5938 41.155 28.5938 39.1875C28.5938 37.22 26.8868 35.625 24.7812 35.625C22.6757 35.625 20.9688 37.22 20.9688 39.1875C20.9688 41.155 22.6757 42.75 24.7812 42.75Z" fill="#FAFAFA"/>
<path d="M24.7812 44.5312C21.6283 44.5312 19.0625 42.1337 19.0625 39.1875C19.0625 36.2413 21.6283 33.8438 24.7812 33.8438C27.9342 33.8438 30.5 36.2413 30.5 39.1875C30.5 42.1337 27.9342 44.5312 24.7812 44.5312ZM24.7812 37.4062C23.729 37.4062 22.875 38.2078 22.875 39.1875C22.875 40.1672 23.729 40.9688 24.7812 40.9688C25.8335 40.9688 26.6875 40.1672 26.6875 39.1875C26.6875 38.2078 25.8335 37.4062 24.7812 37.4062Z" fill="#292931"/>
</svg>
