<svg width="48" height="48" viewBox="0 0 48 48" fill="none" xmlns="http://www.w3.org/2000/svg">
<g clip-path="url(#clip0)">
<path d="M39.2119 23.3533L37.9926 13.4483L35.7078 13.7296L35.7087 13.728L31.279 11.2351C30.8065 10.9692 30.2643 10.8535 29.7244 10.9034L22.7301 11.5503C21.8703 11.6298 21.102 12.1204 20.6683 12.867L15.7385 21.3521C15.3745 21.9786 15.6603 22.7821 16.3382 23.0382L16.5398 23.1143C16.9277 23.2608 17.3265 23.3457 17.725 23.3789L17.1003 23.9229L15.8507 25.0117L12.2963 28.0436C11.6636 28.5947 11.5979 29.5538 12.149 30.1865L12.5096 30.5995C13.2174 31.4111 14.4494 31.4954 15.2626 30.7874L16.621 32.3455C17.0627 32.8527 17.7097 33.0771 18.3314 33.0006C18.705 32.9546 19.0695 32.7998 19.3739 32.5335L20.7308 34.0917C21.174 34.6002 21.821 34.8231 22.4427 34.7466C22.8163 34.7005 23.1808 34.5472 23.4853 34.281L24.2228 34.9183C24.9308 35.7314 26.1642 35.8155 26.9773 35.1075L27.9798 34.2329L36.4075 27.6693L36.4166 27.661L39.7417 27.6577L39.2119 23.3533Z" fill="#F4CBC1"/>
<path d="M35.5997 25.1092L35.5906 25.1176L27.1629 31.6812L26.1604 32.5557C25.3473 33.2637 24.1138 33.1796 23.4058 32.3666L22.6684 31.7292C22.3639 31.9954 21.9992 32.1489 21.6257 32.1948C21.0041 32.2713 20.3572 32.0485 19.9139 31.54L18.5569 29.9818C18.2524 30.2479 17.8879 30.4028 17.5144 30.4488C16.8928 30.5253 16.2457 30.3011 15.8041 29.7938L14.4456 28.2357C13.7494 28.8419 12.7471 28.8655 12.0287 28.3507C11.6602 28.9063 11.6897 29.6593 12.149 30.1865L12.5095 30.5995C13.2173 31.4112 14.4493 31.4954 15.2625 30.7874L16.6209 32.3456C17.0626 32.8527 17.7096 33.0771 18.3313 33.0006C18.7049 32.9546 19.0693 32.7998 19.3738 32.5335L20.7307 34.0918C21.174 34.6003 21.8209 34.8232 22.4426 34.7467C22.8162 34.7006 23.1808 34.5473 23.4853 34.2811L24.2227 34.9184C24.9307 35.7315 26.1641 35.8156 26.9772 35.1076L27.9797 34.233L36.4074 27.6694L36.4165 27.6611L39.7416 27.6578L39.3738 24.6694L35.5997 25.1092Z" fill="#E1B1A6"/>
<path d="M37.1338 29.3934L32.6184 25.5L31.3627 24.4181L30.4642 23.6443L26.6011 20.3143L27.0472 16.5165C27.1981 15.2321 26.3896 14.0296 25.1431 13.6846L16.722 11.3545C15.831 11.1079 14.8893 11.5214 14.4678 12.3442L13.4088 14.4114L8.86306 14.1029L7.69869 24.0145L7.19263 28.3218L11.6174 28.6161L11.6266 28.6244L20.8705 36.5925L21.8779 37.4615C22.6949 38.165 23.9278 38.0741 24.6313 37.2571L25.9794 35.6927C26.2853 35.9572 26.6508 36.1086 27.0247 36.1526C27.6467 36.2257 28.2925 35.9992 28.7329 35.4883L30.0812 33.9226C30.3871 34.187 30.7525 34.3399 31.1263 34.3838C31.7484 34.4569 32.3942 34.229 32.8331 33.7193L34.1828 32.1537C34.9998 32.8572 36.2313 32.7661 36.9346 31.9505L37.2929 31.5354C37.8406 30.8998 37.7695 29.9411 37.1338 29.3934Z" fill="#FFF4EE"/>
<path d="M37.1337 29.3935L35.7583 28.2075C36.2053 28.8003 36.1961 29.6436 35.6917 30.2291L35.3113 30.6697C34.5647 31.5354 33.2574 31.6322 32.3901 30.8854L30.9572 32.5474C30.4914 33.0884 29.8058 33.3303 29.1454 33.2528C28.7486 33.2062 28.3607 33.0439 28.036 32.7631L26.6046 34.4253C26.1371 34.9676 25.4517 35.208 24.7913 35.1305C24.3944 35.0839 24.0064 34.9231 23.6817 34.6423L22.2505 36.303C21.9809 36.6162 21.6375 36.8272 21.2686 36.936L21.8778 37.4616C22.6949 38.1651 23.9278 38.0742 24.6313 37.2572L25.9794 35.6929C26.2853 35.9573 26.6508 36.1087 27.0247 36.1527C27.6467 36.2257 28.2925 35.9993 28.7329 35.4884L30.0812 33.9227C30.3871 34.1872 30.7525 34.3401 31.1263 34.3839C31.7484 34.4571 32.3942 34.2292 32.833 33.7194L34.1828 32.1538C34.9998 32.8573 36.2313 32.7662 36.9346 31.9506L37.2929 31.5355C37.8405 30.8998 37.7694 29.9411 37.1337 29.3935Z" fill="#F4CAC1"/>
<path d="M34.6397 31.6326L32.1655 29.4992C31.8716 29.2457 31.4275 29.2785 31.1738 29.5726C30.9202 29.8667 30.9531 30.3107 31.2472 30.5643L33.717 32.6939L34.1826 32.1539C34.3684 32.3139 34.5762 32.4306 34.7938 32.5093C34.9544 32.2235 34.8975 31.8548 34.6397 31.6326Z" fill="#E1B0A6"/>
<path d="M30.6835 34.2774C30.8529 33.9901 30.7986 33.6142 30.537 33.3887L28.3144 31.4723C28.0203 31.2188 27.5764 31.2516 27.3227 31.5457C27.0691 31.8398 27.102 32.2838 27.3961 32.5374L29.6187 34.4538C29.6197 34.4545 29.6206 34.4552 29.6215 34.4559L30.0807 33.9227C30.2638 34.081 30.4686 34.1985 30.6835 34.2774Z" fill="#E1B0A6"/>
<path d="M11.8487 28.6064L11.3131 29.3136C10.7299 30.0838 10.8814 31.1809 11.6515 31.7642C12.4217 32.3474 13.5188 32.1959 14.1021 31.4258L14.6377 30.7185C15.2209 29.9484 15.0694 28.8512 14.2993 28.2679C13.5291 27.6847 12.4319 27.8362 11.8487 28.6064Z" fill="#FDD8D0"/>
<path d="M15.1106 30.0937L14.1019 31.4256C13.5187 32.1957 13.6702 33.2929 14.4403 33.8762C15.2105 34.4594 16.3076 34.3079 16.891 33.5377L17.8996 32.2058C18.4828 31.4357 18.3313 30.3385 17.5612 29.7552C16.7909 29.172 15.6938 29.3235 15.1106 30.0937Z" fill="#FDD8D0"/>
<path d="M18.2664 31.7226L16.8917 33.5378C16.3085 34.3079 16.46 35.4051 17.2301 35.9884C18.0003 36.5716 19.0974 36.4201 19.6808 35.65L21.0554 33.8348C21.6386 33.0646 21.4871 31.9675 20.717 31.3842C19.9468 30.8009 18.8497 30.9525 18.2664 31.7226Z" fill="#FDD8D0"/>
<path d="M21.135 33.7294L19.6805 35.6499C19.0973 36.42 19.2488 37.5172 20.019 38.1005C20.7891 38.6837 21.8863 38.5322 22.4696 37.7621L23.924 35.8416C24.5072 35.0714 24.3557 33.9743 23.5856 33.391C22.8153 32.8078 21.7182 32.9593 21.135 33.7294Z" fill="#FDD8D0"/>
<path d="M35.7082 13.728L31.2785 11.2351C30.806 10.9692 30.2638 10.8535 29.7239 10.9034L22.7296 11.5503C21.8698 11.6298 21.1015 12.1204 20.6677 12.867L15.738 21.3521C15.374 21.9787 15.6597 22.7821 16.3376 23.0382L16.5393 23.1143C18.3463 23.7968 20.3871 23.216 21.5639 21.6844L23.4527 19.2263C23.4527 19.2263 27.9929 24.4831 32.9916 18.3441" fill="#FDD8D0"/>
<path d="M47.9942 28.9824L45.6774 10.1621C45.6546 9.977 45.5593 9.80854 45.4123 9.69379C45.2653 9.57904 45.0788 9.52747 44.8937 9.55016L39.4761 10.2171C38.069 10.3903 37.0652 11.676 37.2384 13.083L39.0988 28.1955C39.2589 29.4964 40.37 30.4526 41.6488 30.4526C41.753 30.4526 41.8587 30.4462 41.9647 30.4332L47.3823 29.7662C47.7676 29.7187 48.0417 29.3678 47.9942 28.9824Z" fill="#627087"/>
<path d="M47.995 28.982L47.7407 26.9162C47.6253 27.0854 47.4412 27.2063 47.222 27.2333L41.543 27.9324C41.4318 27.9461 41.3211 27.9528 41.2117 27.9528C40.2555 27.9528 39.3892 27.4426 38.9099 26.6553L39.0995 28.195C39.2596 29.496 40.3706 30.4521 41.6495 30.4521C41.7537 30.4521 41.8594 30.4458 41.9654 30.4327L47.383 29.7658C47.7684 29.7184 48.0424 29.3674 47.995 28.982Z" fill="#465166"/>
<path d="M8.52352 10.2166L3.10592 9.5497C2.92058 9.52692 2.7343 9.57858 2.5873 9.69333C2.4403 9.80808 2.34495 9.97655 2.32217 10.1616L0.0053377 28.982C-0.0420996 29.3674 0.231931 29.7183 0.617242 29.7658L6.03485 30.4327C6.14097 30.4457 6.24644 30.4521 6.35078 30.4521C7.62953 30.4521 8.74065 29.4959 8.90077 28.195L10.7611 13.0826C10.9344 11.6756 9.93061 10.3899 8.52352 10.2166Z" fill="#E41139"/>
<path d="M0.00533914 28.982L0.259682 26.9162C0.374994 27.0854 0.559118 27.2063 0.778305 27.2333L6.45738 27.9324C6.56856 27.9461 6.67928 27.9528 6.78859 27.9528C7.74484 27.9528 8.61118 27.4426 9.09043 26.6553L8.90087 28.195C8.74074 29.496 7.62972 30.4521 6.35088 30.4521C6.24663 30.4521 6.14097 30.4458 6.03494 30.4327L0.617337 29.7658C0.231838 29.7184 -0.0420982 29.3675 0.00533914 28.982Z" fill="#C70025"/>
<path d="M43.5005 27.3277C44.2512 27.3277 44.8597 26.7192 44.8597 25.9686C44.8597 25.2179 44.2512 24.6094 43.5005 24.6094C42.7499 24.6094 42.1414 25.2179 42.1414 25.9686C42.1414 26.7192 42.7499 27.3277 43.5005 27.3277Z" fill="white"/>
<path d="M4.42412 27.3277C5.17478 27.3277 5.78331 26.7192 5.78331 25.9686C5.78331 25.2179 5.17478 24.6094 4.42412 24.6094C3.67347 24.6094 3.06494 25.2179 3.06494 25.9686C3.06494 26.7192 3.67347 27.3277 4.42412 27.3277Z" fill="white"/>
</g>
<defs>
<clipPath id="clip0">
<rect width="48" height="48" fill="white"/>
</clipPath>
</defs>
</svg>
