<?xml version="1.0" encoding="utf-8"?>
<!-- Generator: Adobe Illustrator 23.0.0, SVG Export Plug-In . SVG Version: 6.00 Build 0)  -->
<svg version="1.1" id="Layer_1" xmlns="http://www.w3.org/2000/svg" xmlns:xlink="http://www.w3.org/1999/xlink" x="0px" y="0px"
	 viewBox="0 0 64 64" style="enable-background:new 0 0 64 64;" xml:space="preserve">
<style type="text/css">
	.st0{fill:#E41139;}
	.st1{fill:#2E3542;}
	.st2{fill:#EF234A;}
	.st3{fill:#FD3B60;}
	.st4{fill:none;stroke:#2E3542;stroke-width:4;}
	.st5{fill:#EFF1F9;}
</style>
<path class="st0" d="M19.8,14.2l-3.4-3.5c-0.8-0.8-1.9-1.2-3-1.2c-1.1,0-2.2,0.4-3,1.2l-2.5,2.5c-1.6,1.6-1.6,4.3,0,6l3.5,3.5
	c0.3,0.3,0.8,0.5,1.2,0.5c0.4,0,0.9-0.2,1.2-0.5c0.7-0.7,5.4-5.4,6-6C20.5,16,20.5,14.9,19.8,14.2z"/>
<path class="st1" d="M32,2.8c-1,0-1.7,0.8-1.7,1.7v5.5c0,1,0.8,1.7,1.7,1.7c1,0,1.7-0.8,1.7-1.7V4.6C33.7,3.6,33,2.8,32,2.8z"/>
<path class="st2" d="M36.3,2.5h-8.5c-1,0-1.7,0.8-1.7,1.7c0,1,0.8,1.7,1.7,1.7h8.5c1,0,1.7-0.8,1.7-1.7C38,3.3,37.2,2.5,36.3,2.5z"
	/>
<path class="st3" d="M32,2.5h-4.3c-1,0-1.7,0.8-1.7,1.7c0,1,0.8,1.7,1.7,1.7H32V2.5z"/>
<path class="st4" d="M32,10.4c6.5,0,12.7,2.6,17.3,7.2c4.6,4.6,7.2,10.8,7.2,17.4c0,6.6-2.5,12.7-7.2,17.4
	c-4.6,4.6-10.8,7.2-17.3,7.2s-12.7-2.6-17.3-7.2C10,47.7,7.5,41.5,7.5,34.9c0-6.6,2.5-12.7,7.2-17.4C19.3,12.9,25.5,10.4,32,10.4z"
	/>
<path class="st5" d="M32,11.5C19,11.5,8.5,22,8.5,35C8.5,48,19,58.5,32,58.5S55.5,48,55.5,35C55.5,22,45,11.5,32,11.5z"/>
<path class="st1" d="M32,14.8c1.2,0,2.1-1,2.1-2.1V9.6c-0.7-0.1-1.4-0.1-2.1-0.1c-0.7,0-1.4,0-2.1,0.1v3.1
	C29.9,13.9,30.8,14.8,32,14.8z"/>
<path class="st1" d="M32,55.5c-1.2,0-2.1,1-2.1,2.1v3.1c0.7,0.1,1.4,0.1,2.1,0.1c0.7,0,1.4,0,2.1-0.1v-3.1
	C34.1,56.5,33.2,55.5,32,55.5z"/>
<path class="st1" d="M57.7,32.5h-3c-1.2,0-2.1,1-2.1,2.1c0,1.2,1,2.1,2.1,2.1h3c0.1-0.7,0.1-1.4,0.1-2.1S57.7,33.2,57.7,32.5z"/>
<path class="st1" d="M11.8,33.6c0-1.2-1-2.1-2.1-2.1h-3c-0.1,0.7-0.1,1.4-0.1,2.1c0,0.7,0,1.4,0.1,2.1h3
	C10.8,35.8,11.8,34.8,11.8,33.6z"/>
<path class="st2" d="M37.2,33.2h-3v-8.6c0-1.2-1-2.1-2.1-2.1c-1.2,0-2.1,1-2.1,2.1v10.7c0,1.2,1,2.1,2.1,2.1h5.1
	c1.2,0,2.1-1,2.1-2.1S38.4,33.2,37.2,33.2z"/>
</svg>
