<svg width="145" height="142" viewBox="0 0 145 142" fill="none" xmlns="http://www.w3.org/2000/svg">
<path d="M74 141.96C113.175 141.96 144.933 110.202 144.933 71.0268C144.933 31.8514 113.175 0.0934448 74 0.0934448C34.8246 0.0934448 3.06671 31.8514 3.06671 71.0268C3.06671 110.202 34.8246 141.96 74 141.96Z" fill="#1F2633"/>
<g opacity="0.5">
<g opacity="0.5">
<path opacity="0.5" d="M69.0093 82.2238C73.0373 79.4118 74.4053 75.9412 74.8613 71.0265C75.3173 66.1372 73.5187 61.0705 70.0733 57.5492C67.2107 54.6105 63.2587 52.6852 61.1307 49.1892C58.8507 45.4652 58.9267 40.3732 55.76 37.3585C53.5813 35.2812 50.4147 34.7238 47.78 33.3052C45.6267 32.1398 43.8533 30.3918 41.8773 28.9225C39.9013 27.4532 37.5707 26.2625 35.1133 26.4398C31.4147 26.7185 28.552 30.3412 28.3747 34.0398C28.1973 37.7385 30.2493 41.2598 33.0867 43.6665C35.1387 45.3892 37.6467 46.7318 38.9893 49.0625C41.4973 53.4198 38.888 59.4998 41.5733 63.7305C43.5493 66.8465 48.008 68.3158 48.6413 71.9385C48.8693 73.2812 48.4893 74.6238 48.5147 75.9918C48.54 80.2225 52.492 83.6425 56.672 84.3772C60.852 85.1118 65.0827 83.8198 69.0093 82.2238Z" fill="white"/>
</g>
</g>
<path d="M43.1187 41.3108C43.1187 41.3361 43.2707 41.4881 43.5747 41.8174C43.9293 42.1721 44.36 42.6028 44.9173 43.1601C45.5 43.7428 46.2093 44.4521 46.9947 45.3134C47.78 46.1748 48.7173 47.1374 49.6293 48.2774C50.1107 48.8348 50.592 49.4428 51.0987 50.0508C51.6053 50.6588 52.0867 51.3428 52.6187 52.0268C53.6827 53.3948 54.696 54.9401 55.7853 56.5361C57.888 59.8041 59.9907 63.5281 61.84 67.6068C63.664 71.7108 65.0573 75.7641 66.1213 79.4881C66.6027 81.3628 67.084 83.1614 67.388 84.8588C67.54 85.6948 67.7427 86.5308 67.8693 87.3161C67.996 88.1014 68.0973 88.8614 68.224 89.5961C68.4773 91.0401 68.5533 92.3828 68.68 93.5481C68.8067 94.7134 68.8827 95.7268 68.908 96.5374C68.9587 97.3228 68.984 97.9561 69.0347 98.4374C69.06 98.8681 69.0853 99.0961 69.1107 99.0961C69.136 99.0961 69.136 98.8681 69.136 98.4374C69.136 97.9561 69.1107 97.3228 69.1107 96.5374C69.1107 95.7014 69.0853 94.7134 68.9587 93.5227C68.8573 92.3574 68.8067 91.0148 68.5533 89.5454C68.452 88.8108 68.3507 88.0508 68.2493 87.2401C68.148 86.4294 67.9453 85.6188 67.7933 84.7574C67.5147 83.0348 67.0333 81.2361 66.552 79.3361C65.5133 75.5614 64.12 71.4828 62.296 67.3534C60.4213 63.2494 58.2933 59.5001 56.1653 56.2321C55.0507 54.6108 54.0373 53.0654 52.948 51.7228C52.416 51.0388 51.9093 50.3548 51.4027 49.7468C50.8707 49.1388 50.364 48.5561 49.8827 47.9988C48.9453 46.8588 47.9827 45.9214 47.172 45.0601C46.3613 44.1988 45.6267 43.5148 45.0187 42.9574C44.436 42.4254 43.98 41.9948 43.6253 41.6908C43.3213 41.4374 43.144 41.3108 43.1187 41.3108Z" fill="#E1E1E1"/>
<g opacity="0.85">
<path opacity="0.85" d="M1.52133 65.3257C4.02933 56.3577 19.1787 59.271 19.1787 59.271C19.1787 59.271 29.3627 75.079 32.3773 75.4844C35.3667 75.8897 26.2973 60.259 26.2973 60.259C32.0987 59.727 46.868 66.9724 46.868 66.9724C46.868 66.9724 45.804 85.339 48.7933 84.9844C51.7827 84.6297 48.92 68.695 48.92 68.695C54.5187 70.4177 59.7373 77.0044 59.7373 77.0044C66.2227 87.7204 52.112 95.4977 52.112 95.4977C52.112 95.4977 51.884 101.856 55.76 109.203C55.76 109.203 56.6467 110.571 57.5333 112.851H56.0133C55.8867 112.446 55.76 112.04 55.608 111.66C55.608 111.66 55.608 111.66 55.608 111.635C55.5067 111.407 55.3547 111.052 55.1773 110.647C54.7213 109.735 54.392 109.051 54.2147 108.57C52.8213 105.682 50.8453 101.932 49.5027 101.122C49.5027 101.122 49.68 100.894 49.832 100.412C49.7307 100.64 49.604 100.868 49.5027 101.122C46.8427 106.72 33.72 107.582 26.424 106.011C19.128 104.466 22.32 102.414 26.2973 99.095C30.2493 95.7764 38.4827 96.7137 40.94 95.4217C43.3973 94.1297 39.8253 92.787 34.9613 93.1417C30.0973 93.471 27.6147 98.335 19.736 99.019C11.8573 99.703 5.97999 84.8577 5.97999 84.8577C11.4013 86.5804 21.1547 83.6417 21.56 81.7924C21.94 79.9177 7.52533 80.019 5.27066 79.4364C2.91466 78.8284 -0.986674 74.2937 1.52133 65.3257Z" fill="#B7BFCF"/>
</g>
<g opacity="0.35">
<path opacity="0.35" d="M60.1425 111.129H58.6225C58.4452 111.129 58.3185 111.028 58.2679 110.85C58.1412 110.445 58.0145 110.065 57.8625 109.685C57.8625 109.66 57.8372 109.634 57.8372 109.609C57.7865 109.482 57.7105 109.33 57.6345 109.178L57.4319 108.697C56.9759 107.785 56.6465 107.101 56.4692 106.62C54.2905 102.085 52.9732 100.261 52.2385 99.6024C50.4399 102.668 45.9305 103.985 42.3839 104.542C38.0265 105.226 32.8839 105.15 28.9572 104.289C26.0185 103.656 24.5745 102.921 24.3212 101.882C23.9919 100.54 25.6132 99.2224 27.8172 97.3984C28.0959 97.1704 28.3745 96.9424 28.6532 96.7144C31.2119 94.5611 35.4425 94.1557 38.8372 93.8011C40.8132 93.5984 42.5105 93.4464 43.3719 92.9904C43.8279 92.7624 43.9799 92.5344 43.9545 92.4584C43.8025 91.9517 41.4465 91.1411 37.5959 91.4451C35.5185 91.5971 33.8972 92.5851 32.0225 93.7504C29.5905 95.2451 26.8545 96.9424 22.3959 97.3224C22.1932 97.3477 22.0159 97.3477 21.8385 97.3477C14.0612 97.3477 8.5132 83.5157 8.25987 82.9331C8.2092 82.8064 8.23453 82.6291 8.33587 82.5277C8.4372 82.4264 8.5892 82.3757 8.7412 82.4264C12.9465 83.7691 19.9892 82.1984 22.8012 80.5771C23.6879 80.0704 23.8145 79.7411 23.8399 79.6397C23.8145 79.6144 23.5612 79.1331 20.1919 78.7277C18.0639 78.4744 15.4292 78.3224 13.0985 78.1957C10.5905 78.0437 8.5892 77.9424 7.8292 77.7397C6.6132 77.4104 5.34653 76.3211 4.45987 74.7757C3.4972 73.0784 2.10387 69.3291 3.8012 63.1731C4.8652 59.3477 8.3612 57.0424 13.9092 56.5104C18.0132 56.1051 21.7372 56.8144 21.9145 56.8397C22.0159 56.8651 22.1172 56.9157 22.1679 57.0171C26.2212 63.2997 33.0105 72.7744 35.0879 73.0531C35.1385 73.0531 35.1892 73.0531 35.2145 73.0531C35.8479 72.0904 32.3772 64.8451 28.6279 58.4104C28.5519 58.3091 28.5519 58.1571 28.6279 58.0557C28.6785 57.9291 28.8052 57.8531 28.9319 57.8531C34.7839 57.3211 49.0972 64.3131 49.7052 64.5917C49.8319 64.6677 49.9332 64.7944 49.9079 64.9464C49.6545 69.2531 49.3759 80.8051 51.0985 82.4264C51.2252 82.5531 51.3265 82.5531 51.4025 82.5531C51.5545 82.5277 51.6559 82.4517 51.7825 82.2997C53.2519 80.3237 51.8585 70.3677 51.1999 66.7197C51.1745 66.5931 51.2252 66.4664 51.3265 66.3651C51.4279 66.2891 51.5545 66.2384 51.6812 66.2891C57.3305 68.0371 62.4732 74.4464 62.6759 74.7251C62.6759 74.7251 62.7012 74.7504 62.7012 74.7757C64.3985 77.5624 64.8799 80.4251 64.1199 83.2624C62.5492 89.1144 56.3425 92.9651 55.1519 93.6744C55.1519 94.8144 55.3545 100.54 58.7492 106.974C58.8505 107.126 59.6865 108.494 60.5479 110.673C60.5985 110.8 60.5732 110.926 60.4972 111.028C60.3959 111.078 60.2692 111.129 60.1425 111.129ZM58.9012 110.369H59.5852C58.7999 108.469 58.0652 107.329 58.0652 107.304C58.0652 107.304 58.0652 107.278 58.0399 107.278C54.1639 99.9317 54.3412 93.6491 54.3412 93.3704C54.3412 93.2437 54.4172 93.1171 54.5439 93.0411C54.6199 92.9904 61.7385 89.0131 63.3599 82.9837C64.0692 80.3491 63.6132 77.7144 62.0425 75.1051C61.7385 74.7504 57.0772 69.0251 52.0105 67.1504C52.4919 70.0384 54.0879 80.3237 52.3399 82.6797C52.0865 83.0091 51.7825 83.1864 51.4279 83.2371C51.0985 83.2877 50.7692 83.1611 50.5159 82.9077C48.3119 80.8304 48.9452 67.5811 49.0719 65.0731C47.2732 64.2117 35.1385 58.4864 29.5399 58.4864C29.5399 58.4864 29.5399 58.4864 29.5145 58.4864C30.1225 59.5757 31.5919 62.1597 32.9345 64.8451C36.1772 71.3051 36.1519 72.7997 35.7465 73.4077C35.6452 73.5597 35.3919 73.8131 34.8852 73.7624C31.8705 73.3571 22.9025 59.7024 21.5092 57.5237C19.9132 57.2451 6.6892 55.2944 4.45987 63.3251C2.83853 69.2277 4.13053 72.7491 5.04253 74.3451C5.97987 75.9664 7.1452 76.7517 7.95587 76.9544C8.6652 77.1317 10.7172 77.2584 13.0732 77.3851C19.1532 77.7397 23.5359 78.0691 24.3465 79.1331C24.4985 79.3104 24.5492 79.5384 24.4985 79.7411C24.3972 80.2224 23.9412 80.6784 23.0799 81.1597C20.2425 82.8064 13.6812 84.3264 9.1972 83.2877C10.4892 86.2011 15.7332 97.0691 22.2692 96.4864C26.5505 96.1064 29.2105 94.4851 31.5665 93.0157C33.4665 91.8504 35.2399 90.7611 37.4945 90.6091C40.6865 90.3811 44.2585 90.8371 44.6385 92.1797C44.7399 92.5344 44.6639 93.0917 43.6759 93.5984C42.6879 94.1051 40.9145 94.2824 38.8625 94.4851C35.5692 94.8144 31.4652 95.2197 29.0839 97.2211C28.8052 97.4491 28.5265 97.6771 28.2479 97.9051C26.4745 99.3744 24.7772 100.768 25.0052 101.629C25.1825 102.313 26.5252 102.946 29.0585 103.478C32.8839 104.314 37.9252 104.39 42.2065 103.706C47.2225 102.921 50.5919 101.173 51.7319 98.7917C51.7825 98.6397 51.8585 98.4877 51.9345 98.3611C51.9852 98.2597 52.0105 98.1837 52.0612 98.1077C52.1372 97.9304 52.3652 97.8291 52.5425 97.9051C52.7199 97.9811 52.8212 98.1837 52.7705 98.3864C52.7199 98.5891 52.6439 98.7411 52.5679 98.8677C53.6825 99.7797 55.1772 102.212 57.1279 106.265C57.1279 106.265 57.1279 106.29 57.1532 106.29C57.3305 106.746 57.6599 107.43 58.0905 108.317L58.3185 108.824C58.3945 109.026 58.4705 109.178 58.5212 109.305C58.5465 109.33 58.5465 109.356 58.5465 109.406C58.6985 109.761 58.7999 110.065 58.9012 110.369Z" fill="#E41139"/>
</g>
<g opacity="0.85">
<g opacity="0.85">
<g opacity="0.85">
<path opacity="0.85" d="M142.349 123.011C142.02 123.011 141.665 122.859 141.463 122.555L135.155 113.511C134.825 113.029 134.927 112.345 135.433 112.016C135.915 111.687 136.599 111.788 136.928 112.295L143.236 121.339C143.565 121.82 143.464 122.504 142.957 122.833C142.78 122.935 142.577 123.011 142.349 123.011Z" fill="#E41139"/>
</g>
</g>
<g opacity="0.85">
<g opacity="0.85">
<path opacity="0.85" d="M134.699 121.795C134.369 121.795 134.015 121.643 133.812 121.339C133.483 120.858 133.584 120.174 134.091 119.844L143.135 113.536C143.616 113.207 144.3 113.308 144.629 113.815C144.959 114.296 144.857 114.98 144.351 115.31L135.307 121.592C135.129 121.744 134.901 121.795 134.699 121.795Z" fill="#E41139"/>
</g>
</g>
</g>
<path d="M113.115 48.4297C115.297 48.4297 117.067 46.6603 117.067 44.4777C117.067 42.295 115.297 40.5257 113.115 40.5257C110.932 40.5257 109.163 42.295 109.163 44.4777C109.163 46.6603 110.932 48.4297 113.115 48.4297Z" fill="#EDEFF7"/>
<path d="M58.6987 10.6825C58.5467 10.5812 58.42 10.3785 58.42 10.1758L58.3694 3.69049C58.3694 3.33583 58.648 3.05716 59.0027 3.05716C59.3573 3.05716 59.636 3.33583 59.636 3.69049L59.6867 10.1758C59.6867 10.5305 59.408 10.8092 59.0533 10.8092C58.9267 10.8092 58.8 10.7585 58.6987 10.6825Z" fill="#E41139"/>
<path d="M55.4054 7.54101C55.2534 7.43967 55.1267 7.23701 55.1267 7.03434C55.1267 6.67967 55.4054 6.40101 55.76 6.40101L62.2454 6.35034C62.6 6.35034 62.8787 6.62901 62.8787 6.98367C62.8787 7.33834 62.6 7.61701 62.2454 7.61701L55.76 7.66767C55.6334 7.66767 55.5067 7.61701 55.4054 7.54101Z" fill="#E41139"/>
<g opacity="0.85">
<g opacity="0.85">
<g opacity="0.85">
<path opacity="0.85" d="M25.3346 37.7636C25.1573 37.6369 25.0559 37.4596 25.0559 37.2316L24.9293 30.4929C24.9293 30.1383 25.2079 29.8343 25.5626 29.8343C25.9173 29.8343 26.2213 30.1129 26.2213 30.4676L26.3479 37.2063C26.3479 37.5609 26.0693 37.8649 25.7146 37.8649C25.5626 37.8649 25.4359 37.8396 25.3346 37.7636Z" fill="#CBD1DD"/>
</g>
</g>
<g opacity="0.85">
<g opacity="0.85">
<path opacity="0.85" d="M21.8639 34.521C21.6866 34.3943 21.5853 34.217 21.5853 33.989C21.5853 33.6343 21.8639 33.3303 22.2186 33.3303L28.9573 33.2037C29.3119 33.2037 29.6159 33.4823 29.6159 33.837C29.6159 34.1917 29.3373 34.4957 28.9826 34.4957L22.2439 34.6223C22.0919 34.6477 21.9653 34.597 21.8639 34.521Z" fill="#CBD1DD"/>
</g>
</g>
</g>
<path d="M12.1867 115.613C15.1948 115.613 17.6333 113.175 17.6333 110.167C17.6333 107.158 15.1948 104.72 12.1867 104.72C9.17858 104.72 6.74002 107.158 6.74002 110.167C6.74002 113.175 9.17858 115.613 12.1867 115.613Z" fill="#D2D9E5"/>
<path d="M24.6761 118.045C20.7748 112.193 29.8948 104.948 29.8948 104.948C29.8948 104.948 43.9801 106.898 45.6775 105.378C47.3748 103.858 33.9735 101.376 33.9735 101.376C36.5321 97.7784 47.9321 92.8891 47.9321 92.8891C47.9321 92.8891 57.9135 102.541 59.2055 100.641C60.4721 98.7411 49.9335 92.5344 49.9335 92.5344C53.6828 90.1784 60.0161 90.4318 60.0161 90.4318C69.3641 92.0024 66.8561 103.909 66.8561 103.909C66.8561 103.909 70.4028 107.177 76.5081 108.57C76.5081 108.57 77.7241 108.722 79.4721 109.356L78.7121 110.217C78.4081 110.09 78.1295 109.964 77.8255 109.862C77.8255 109.862 77.8255 109.862 77.8001 109.862C77.6228 109.812 77.3441 109.736 77.0148 109.634C76.2548 109.457 75.7228 109.28 75.3428 109.153C73.0121 108.52 69.8708 107.81 68.7561 108.19C68.7561 108.19 68.7055 107.988 68.5281 107.658C68.6041 107.836 68.6801 108.013 68.7561 108.19C70.6561 112.472 64.6775 120.401 60.1935 123.821C55.7095 127.241 56.1148 124.404 56.1655 120.502C56.2161 116.601 60.8015 112.345 61.2828 110.293C61.7388 108.266 59.2308 109.634 57.0268 112.598C54.8228 115.562 56.3935 119.362 52.8975 124.226C49.4268 129.09 38.0015 125.138 38.0015 125.138C41.6495 122.884 44.7908 115.841 43.9041 114.701C43.0175 113.561 35.9748 121.87 34.5308 122.858C33.1121 123.897 28.6028 123.897 24.6761 118.045Z" fill="#D2D9E5"/>
<path d="M132.925 61.4758C118.46 87.5185 80.536 112.142 80.536 112.142C80.536 112.142 111.569 107.81 125.883 86.7585L120.005 82.4265C120.005 82.4265 124.489 82.6038 128.239 82.8065C131.355 76.9291 133.179 69.8865 132.925 61.4758Z" fill="#EDEFF7"/>
<g opacity="0.5">
<path opacity="0.5" d="M91.7586 74.2692L97.104 74.7252L94.1906 71.9385C98.016 68.5692 102.323 66.2385 106.629 64.6172C108.555 67.0998 110.809 69.8612 110.809 69.8612L110.835 63.2492C122.437 60.0318 132.925 61.4758 132.925 61.4758C118.46 87.5185 80.536 112.142 80.536 112.142C79.624 93.6998 84.5893 81.8438 91.7586 74.2692Z" fill="#EDEFF7"/>
</g>
<g opacity="0.2">
<path opacity="0.2" d="M79.396 116.171C79.244 116.171 79.092 116.069 79.0413 115.917C78.9907 115.74 79.0413 115.563 79.1933 115.461C79.5733 115.208 117.193 90.5841 131.456 64.9214C131.532 64.7694 131.709 64.6934 131.887 64.7441C132.064 64.7948 132.165 64.9214 132.165 65.0988C132.393 73.0028 130.823 80.2481 127.428 86.6068C127.352 86.7334 127.225 86.8094 127.073 86.8094C124.565 86.6827 121.677 86.5561 120.081 86.4801L124.971 90.0774C125.123 90.2041 125.173 90.4321 125.072 90.6094C117.624 101.553 105.616 107.937 96.8507 111.332C87.376 115.031 79.548 116.145 79.472 116.145C79.4213 116.171 79.4213 116.171 79.396 116.171ZM131.431 66.5174C123.78 79.5894 110.429 92.1547 100.423 100.515C91.8347 107.684 84.2093 113.004 81.1187 115.107C83.9307 114.575 89.8587 113.257 96.5973 110.623C105.16 107.279 116.889 101.097 124.236 90.4827L118.663 86.3788C118.536 86.2774 118.485 86.1001 118.536 85.9481C118.587 85.7961 118.739 85.6947 118.916 85.6947C118.967 85.6947 123.248 85.8721 126.921 86.0494C129.911 80.2481 131.456 73.6614 131.431 66.5174Z" fill="#E41139"/>
</g>
<g opacity="0.2">
<path opacity="0.2" d="M79.4213 116.17C79.3707 116.17 79.2947 116.145 79.244 116.12C79.1173 116.069 79.0413 115.942 79.0413 115.79C78.2307 99.2478 82.0307 86.4038 90.3653 77.6384C90.4413 77.5624 90.568 77.5118 90.6693 77.5118L94.9507 77.8664L92.8227 75.8144C92.7467 75.7384 92.696 75.6371 92.696 75.5358C92.696 75.4344 92.7467 75.3331 92.8227 75.2571C96.3187 72.1664 100.549 69.6838 105.388 67.8598C105.54 67.8091 105.717 67.8598 105.819 67.9864C107.085 69.6078 108.504 71.3811 109.315 72.3944L109.34 66.8464C109.34 66.6691 109.467 66.5171 109.619 66.4918C121.171 63.2998 131.76 64.6931 131.861 64.7184C131.988 64.7438 132.089 64.8198 132.14 64.9211C132.191 65.0224 132.191 65.1744 132.14 65.2758C124.641 78.7784 110.759 91.8758 100.423 100.489C89.2507 109.812 79.7 116.018 79.624 116.094C79.5733 116.145 79.4973 116.17 79.4213 116.17ZM90.796 78.3224C82.816 86.8091 79.092 99.1971 79.776 115.106C84.488 111.965 117.725 89.2158 131.203 65.4278C128.897 65.1998 119.879 64.5158 110.1 67.1758L110.075 73.5091C110.075 73.6611 109.973 73.8131 109.821 73.8638C109.669 73.9144 109.492 73.8638 109.391 73.7371C109.365 73.7118 107.237 71.1024 105.388 68.6958C100.904 70.4184 96.952 72.7238 93.6333 75.5864L96.2427 78.0944C96.3693 78.1958 96.3947 78.3731 96.3187 78.5251C96.2427 78.6771 96.0907 78.7531 95.9387 78.7531L90.796 78.3224Z" fill="#E41139"/>
</g>
<g opacity="0.95">
<path opacity="0.95" d="M105.895 118.425C106.123 117.057 106.427 115.031 106.427 115.031L108.124 117.792C111.443 116.728 114.305 115.233 116.712 113.561C115.825 112.117 114.863 110.471 114.863 110.471L118.941 111.889C124.743 107.177 127.327 101.984 127.327 101.984C106.553 103.099 78.8893 115.461 78.8893 115.461C89.96 119.895 98.8773 120.148 105.895 118.425Z" fill="#EDEFF7"/>
</g>
<path d="M83.7027 90.1788H65.1587V81.0335C65.1587 77.6895 65.5894 75.2068 66.4507 73.5348C67.312 71.8628 69.1107 69.6081 71.872 66.7708L80.1814 58.2335C81.3974 56.7641 82.0054 54.8641 82.0054 52.5588C82.0054 50.2281 81.3467 48.3028 80.0547 46.7575C78.7627 45.2121 77.04 44.4268 74.9374 44.4268C72.8094 44.4268 71.0614 45.3388 69.6174 47.1628C68.1987 48.9868 67.312 51.4188 66.9827 54.4335H47.5774C48.464 46.3015 51.4534 39.9175 56.4947 35.2815C61.536 30.6455 67.8694 28.3148 75.4694 28.3148C83.0694 28.3148 89.2507 30.3921 94.0134 34.5468C98.776 38.7015 101.157 44.4268 101.157 51.7481C101.157 55.0161 100.752 57.4228 99.9414 59.0188C99.1307 60.6148 98.548 61.7548 98.244 62.4388C97.9147 63.1228 97.1547 64.1615 95.9894 65.5548C94.7987 66.9481 94.0134 67.8348 93.608 68.2401C91.6574 70.1908 89.808 72.0148 88.06 73.7375C86.312 75.4348 85.1467 76.8534 84.5894 77.9428C84.0067 79.0321 83.728 80.6788 83.728 82.8828L83.7027 90.1788ZM67.0334 113.435C64.956 111.357 63.9174 108.824 63.9174 105.809C63.9174 102.795 64.956 100.261 67.0334 98.1841C69.1107 96.1068 71.644 95.0681 74.6587 95.0681C77.6734 95.0681 80.2067 96.1068 82.284 98.1841C84.3614 100.261 85.4 102.795 85.4 105.809C85.4 108.824 84.3614 111.357 82.284 113.435C80.2067 115.512 77.6734 116.551 74.6587 116.551C71.6694 116.551 69.1107 115.512 67.0334 113.435Z" fill="#E41139"/>
<path d="M72.708 115.005C69.592 115.005 66.932 113.916 64.804 111.788C62.6507 109.635 61.5867 107 61.5867 103.884C61.5867 100.793 62.676 98.1332 64.804 95.9799C66.9573 93.8266 69.592 92.7626 72.708 92.7626C75.7987 92.7626 78.4587 93.8519 80.612 95.9799C82.7653 98.1332 83.8293 100.768 83.8293 103.884C83.8293 107 82.74 109.635 80.612 111.788C78.484 113.941 75.7987 115.005 72.708 115.005ZM72.708 93.5226C69.7693 93.5226 67.3627 94.5106 65.3613 96.5372C63.3347 98.5639 62.3467 100.971 62.3467 103.884C62.3467 106.823 63.3347 109.229 65.3613 111.231C67.3373 113.232 69.7947 114.245 72.708 114.245C75.6467 114.245 78.0533 113.257 80.0547 111.231C82.0813 109.204 83.0693 106.797 83.0693 103.884C83.0693 100.971 82.0813 98.5386 80.0547 96.5372C78.0533 94.5106 75.6467 93.5226 72.708 93.5226ZM81.752 88.6332H63.208C63.0053 88.6332 62.828 88.4559 62.828 88.2532V79.1079C62.828 75.6879 63.2587 73.1799 64.1707 71.4319C65.0573 69.7092 66.9067 67.4039 69.668 64.5666L77.9773 56.0292C79.1173 54.6359 79.7 52.8119 79.7 50.6079C79.7 50.4052 79.8773 50.2279 80.08 50.2279C80.2827 50.2279 80.46 50.4052 80.46 50.6079C80.46 52.9892 79.8267 54.9906 78.56 56.5359L78.5347 56.5612L70.2 65.0986C67.4893 67.8852 65.6907 70.1146 64.8547 71.7612C64.0187 73.3826 63.6133 75.8399 63.6133 79.0826V87.8479H81.3973V80.9066C81.3973 78.6012 81.7013 76.9292 82.3093 75.7892C82.892 74.6492 84.0827 73.2052 85.856 71.4826C87.7813 69.5826 89.5293 67.8599 91.404 65.9852C91.784 65.6052 92.5693 64.7186 93.76 63.3252C94.9253 61.9319 95.66 60.9186 95.964 60.2852C96.2427 59.6519 96.7493 58.6386 97.484 57.2199L97.6613 56.8399C98.4467 55.2946 98.8267 52.9132 98.8267 49.7466C98.8267 42.5772 96.4707 36.9026 91.8093 32.8239C87.148 28.7452 80.992 26.6932 73.5187 26.6932C66.0453 26.6932 59.7627 28.9986 54.7973 33.5586C49.832 38.1186 46.868 44.4772 46.0067 52.4826C45.9813 52.6852 45.804 52.8372 45.576 52.8119C45.3733 52.7866 45.2213 52.6092 45.2467 52.3812C46.1333 44.1986 49.1733 37.6879 54.2907 33.0012C59.3827 28.3146 65.868 25.9332 73.5187 25.9332C81.1693 25.9332 87.5027 28.0612 92.316 32.2666C97.1547 36.4719 99.5867 42.3492 99.5867 49.7466C99.5867 53.0906 99.1813 55.5226 98.32 57.1946L98.1427 57.5746C97.4333 58.9679 96.9267 59.9812 96.648 60.6146C96.3187 61.3239 95.5587 62.3626 94.3427 63.8319C93.1267 65.2506 92.3413 66.1372 91.936 66.5426C90.0613 68.4172 88.3133 70.1399 86.388 72.0399C84.6653 73.7119 83.5253 75.0799 82.9933 76.1439C82.436 77.1572 82.1827 78.7532 82.1827 80.9066V88.2532C82.132 88.4559 81.9547 88.6332 81.752 88.6332Z" fill="#2E3542"/>
<path d="M132.508 54.9269L85.4493 92.6223L97.1697 107.254L144.229 69.5587L132.508 54.9269Z" fill="#E41139"/>
<path d="M97.256 103.504C97.2306 103.504 97.2306 103.504 97.2053 103.504C97.104 103.504 97.0026 103.454 96.952 103.352L85.248 88.7097C85.1213 88.5577 85.1466 88.3044 85.2986 88.1777C85.4506 88.051 85.704 88.0764 85.8306 88.2284L97.3066 102.567L144.072 65.099C144.224 64.9724 144.477 64.9977 144.604 65.1497C144.731 65.3017 144.705 65.555 144.553 65.6817L97.484 103.428C97.4333 103.479 97.332 103.504 97.256 103.504Z" fill="#2E3542"/>
</svg>
