<?xml version="1.0" encoding="UTF-8"?><!DOCTYPE svg PUBLIC "-//W3C//DTD SVG 1.1//EN" "http://www.w3.org/Graphics/SVG/1.1/DTD/svg11.dtd"><svg xmlns="http://www.w3.org/2000/svg" xmlns:xlink="http://www.w3.org/1999/xlink"><symbol id="ico-mono-arrow-right" viewBox="0 0 16 8">
    <path d="M12 3H0v2h12v3l4-4-4-4v3z"/>
</symbol><symbol id="ico-mono-arrow" viewBox="0 0 16 16">
    <path d="M3.4 4.3L8 8.9l4.6-4.6L14 5.7l-6 6-6-6 1.4-1.4z"/>
</symbol><symbol id="ico-mono-soc-fb" viewBox="0 0 24 24">
    <path d="M13.397 20.997v-8.196h2.765l.411-3.209h-3.176V7.548c0-.926.258-1.56 1.587-1.56h1.684v-2.86c-.82-.089-1.643-.131-2.467-.128-2.444 0-4.122 1.492-4.122 4.231v2.355H7.332v3.21h2.753v8.201h3.312z"/>
</symbol><symbol id="ico-mono-soc-tw" viewBox="0 0 24 24">
    <path d="M21.75 5.96a8.015 8.015 0 01-2.302.619 3.987 3.987 0 001.758-2.203 7.892 7.892 0 01-2.536.965 3.985 3.985 0 00-2.92-1.263 3.996 3.996 0 00-3.996 3.999c0 .309.037.618.098.916a11.358 11.358 0 01-8.24-4.184 3.968 3.968 0 00-.544 2.018c0 1.388.705 2.611 1.781 3.33a4.03 4.03 0 01-1.807-.508v.05a3.997 3.997 0 003.204 3.923c-.344.09-.697.135-1.052.136-.26 0-.507-.026-.755-.061a4.004 4.004 0 003.736 2.773 8.01 8.01 0 01-4.962 1.708c-.335 0-.644-.012-.965-.05a11.317 11.317 0 006.138 1.794c7.35 0 11.372-6.09 11.372-11.374 0-.174 0-.347-.012-.52A8.607 8.607 0 0021.75 5.96z"/>
</symbol><symbol id="ico-mono-soc-youtube" viewBox="0 0 25 25">
    <path d="M24.475 6.462a3.13 3.13 0 00-2.177-2.173c-1.95-.52-9.785-.52-9.785-.52s-7.822-.013-9.791.52A3.129 3.129 0 00.549 6.462a32.48 32.48 0 00-.544 6.05c-.004 2.02.178 4.036.544 6.023a3.142 3.142 0 002.173 2.177c1.95.52 9.79.52 9.79.52s7.817 0 9.786-.52a3.143 3.143 0 002.177-2.177 32.76 32.76 0 00.521-6.022 32.717 32.717 0 00-.521-6.051zm-14.466 9.79V8.757l6.523 3.757-6.523 3.74z"/>
</symbol><symbol id="ico-mono-world" viewBox="0 0 24 24">
    <path d="M11.99 2C6.47 2 2 6.48 2 12s4.47 10 9.99 10C17.52 22 22 17.52 22 12S17.52 2 11.99 2zm6.93 6h-2.95a15.65 15.65 0 00-1.38-3.56A8.03 8.03 0 0118.92 8zM12 4.04c.83 1.2 1.48 2.53 1.91 3.96h-3.82c.43-1.43 1.08-2.76 1.91-3.96zM4.26 14C4.1 13.36 4 12.69 4 12s.1-1.36.26-2h3.38c-.08.66-.14 1.32-.14 2 0 .68.06 1.34.14 2H4.26zm.82 2h2.95c.32 1.25.78 2.45 1.38 3.56A7.987 7.987 0 015.08 16zm2.95-8H5.08a7.987 7.987 0 014.33-3.56A15.65 15.65 0 008.03 8zM12 19.96c-.83-1.2-1.48-2.53-1.91-3.96h3.82c-.43 1.43-1.08 2.76-1.91 3.96zM14.34 14H9.66c-.09-.66-.16-1.32-.16-2 0-.68.07-1.35.16-2h4.68c.09.65.16 1.32.16 2 0 .68-.07 1.34-.16 2zm.25 5.56c.6-1.11 1.06-2.31 1.38-3.56h2.95a8.03 8.03 0 01-4.33 3.56zM16.36 14c.08-.66.14-1.32.14-2 0-.68-.06-1.34-.14-2h3.38c.16.64.26 1.31.26 2s-.1 1.36-.26 2h-3.38z"/>
</symbol></svg>