<svg width="190" height="47" viewBox="0 0 190 47" fill="none" xmlns="http://www.w3.org/2000/svg">
<g clip-path="url(#clip0)">
<path d="M45.812 41.1826V37.2429H44.6523V36.7735H45.812V35.2271H46.313V36.7735H48.1035V37.2429H46.313V41.0353C46.313 41.4864 46.3965 41.7993 46.5728 41.9834C46.749 42.1675 47.0273 42.2596 47.3984 42.2596C47.7232 42.2596 47.9922 42.2227 48.1963 42.1583V42.5909C47.9458 42.6738 47.6489 42.7198 47.3057 42.7198C46.8418 42.7198 46.4707 42.5909 46.2109 42.3332C45.9419 42.0755 45.812 41.6889 45.812 41.1826Z" fill="white"/>
<path d="M51.3872 36.7737L51.4707 37.8047H51.48C51.7119 37.4641 52.0366 37.188 52.4541 36.9578C52.8809 36.7369 53.3076 36.6265 53.7529 36.6265H53.9199V37.1143H53.7529C53.2983 37.1143 52.853 37.234 52.4263 37.4825C51.9995 37.731 51.6841 38.0532 51.4707 38.4582V42.5636H50.9697V36.7737H51.3872Z" fill="white"/>
<path d="M56.332 40.3449V36.7734H56.833V40.4738C56.833 41.1089 56.9814 41.5692 57.2783 41.8453C57.5752 42.1215 57.9834 42.2595 58.4936 42.2595C58.8647 42.2595 59.1709 42.1951 59.4121 42.057C59.6626 41.919 59.8481 41.7349 59.9687 41.4955C60.0894 41.2562 60.1543 40.9064 60.1543 40.4462V36.7734H60.6553V40.3541C60.6553 40.8144 60.6182 41.1826 60.5347 41.4495C60.4512 41.7164 60.312 41.9466 60.1079 42.1491C59.9038 42.3516 59.6811 42.4989 59.4121 42.5909C59.1431 42.683 58.8555 42.729 58.5215 42.729C58.1597 42.729 57.8442 42.6738 57.5659 42.5725C57.2876 42.4712 57.0557 42.324 56.8701 42.1307C56.6846 41.9466 56.5454 41.7257 56.4619 41.4679C56.3784 41.2102 56.332 40.8328 56.332 40.3449Z" fill="white"/>
<path d="M63.5776 42.4255V41.91C64.0322 42.1586 64.561 42.2782 65.1641 42.2782C65.6558 42.2782 66.0547 42.1678 66.3423 41.9377C66.6299 41.7075 66.7783 41.3854 66.7783 40.9712C66.7783 40.6582 66.6855 40.4189 66.4907 40.244C66.2959 40.0783 65.9805 39.9402 65.5259 39.8298C65.1177 39.7285 64.7744 39.6272 64.5147 39.5168C64.2549 39.4063 64.0415 39.2498 63.8745 39.0473C63.7075 38.8448 63.624 38.5687 63.624 38.2281C63.624 37.685 63.8096 37.28 64.1714 37.0223C64.5425 36.7553 65.0064 36.6265 65.5815 36.6265C66.1011 36.6265 66.5835 36.7369 67.0381 36.9578V37.4457C66.7969 37.326 66.5649 37.234 66.333 37.1696C66.1104 37.1051 65.8413 37.0775 65.5444 37.0775C65.0713 37.0775 64.7188 37.1788 64.4683 37.3721C64.2271 37.5654 64.1064 37.8415 64.1064 38.2005C64.1064 38.449 64.1621 38.6423 64.2827 38.7804C64.394 38.9185 64.5518 39.0289 64.7559 39.1026C64.96 39.1762 65.2568 39.2683 65.665 39.3603C66.231 39.4984 66.6392 39.6917 66.8896 39.931C67.1494 40.1703 67.27 40.5109 67.27 40.9527C67.27 41.4958 67.0845 41.9377 66.7041 42.2598C66.333 42.582 65.8135 42.7477 65.1641 42.7477C64.4683 42.7201 63.9395 42.6188 63.5776 42.4255Z" fill="white"/>
<path d="M70.4336 41.1826V37.2429H69.2739V36.7735H70.4336V35.2271H70.9346V36.7735H72.7251V37.2429H70.9346V41.0353C70.9346 41.4864 71.0181 41.7993 71.1943 41.9834C71.3706 42.1675 71.6489 42.2596 72.02 42.2596C72.3447 42.2596 72.6138 42.2227 72.8179 42.1583V42.5909C72.5674 42.6738 72.2705 42.7198 71.9272 42.7198C71.4634 42.7198 71.0923 42.5909 70.8325 42.3332C70.5635 42.0755 70.4336 41.6889 70.4336 41.1826Z" fill="white"/>
<path d="M75.1836 39.6088C75.1836 39.0013 75.2856 38.4766 75.499 38.0256C75.7124 37.5746 76 37.2248 76.3711 36.9855C76.7422 36.7461 77.1597 36.6265 77.6235 36.6265C78.3101 36.6265 78.8574 36.8474 79.2656 37.2892C79.6738 37.731 79.8779 38.4306 79.8779 39.3879V39.6088H75.7124C75.7124 40.5201 75.9165 41.1921 76.3154 41.6247C76.7236 42.0481 77.2895 42.269 78.0225 42.269C78.644 42.269 79.2007 42.1586 79.6738 41.9377V42.4071C79.2842 42.6188 78.7368 42.7293 78.0225 42.7293C77.1133 42.7293 76.4175 42.4623 75.9258 41.9193C75.4341 41.367 75.1836 40.5938 75.1836 39.6088ZM77.6328 37.0591C77.1133 37.0591 76.6772 37.2524 76.3247 37.6482C75.9722 38.0348 75.7681 38.5411 75.7217 39.1578H79.3677C79.3584 38.4674 79.2007 37.952 78.9131 37.593C78.6162 37.2432 78.1895 37.0591 77.6328 37.0591Z" fill="white"/>
<path d="M82.6611 39.7003C82.6611 38.7614 82.8931 38.0066 83.3477 37.4543C83.8022 36.9021 84.4238 36.6167 85.1938 36.6167C85.5928 36.6167 85.9453 36.6811 86.2329 36.8192C86.5298 36.9481 86.7803 37.1598 87.0029 37.4451H87.0308L87.0029 36.7456V33.5791H87.5039V41.4216C87.5039 41.9003 87.5132 42.2777 87.541 42.563H87.1699L87.0308 41.8911H87.0029C86.8359 42.112 86.5762 42.3053 86.2236 42.471C85.8711 42.6367 85.5278 42.7195 85.1846 42.7195C84.73 42.7195 84.3032 42.6091 83.9321 42.3974C83.5518 42.1856 83.2456 41.8543 83.0137 41.4032C82.7725 40.9522 82.6611 40.3815 82.6611 39.7003ZM87.0029 41.2559V37.9698C86.4927 37.3715 85.8896 37.0769 85.2124 37.0769C84.5908 37.0769 84.0898 37.3163 83.7373 37.7857C83.3755 38.2644 83.1992 38.9087 83.1992 39.7279C83.1992 40.5196 83.3755 41.1363 83.7373 41.5873C84.0898 42.0384 84.5815 42.2593 85.2124 42.2593C85.5928 42.2593 85.9453 42.1672 86.2793 41.9739C86.6133 41.7806 86.8359 41.5505 87.0029 41.2559Z" fill="white"/>
<path d="M96.9111 39.6088C96.9111 39.0013 97.0132 38.4766 97.2266 38.0256C97.4399 37.5746 97.7275 37.2248 98.0986 36.9855C98.4697 36.7461 98.8872 36.6265 99.3511 36.6265C100.038 36.6265 100.585 36.8474 100.993 37.2892C101.401 37.731 101.605 38.4306 101.605 39.3879V39.6088H97.4399C97.4399 40.5201 97.6441 41.1921 98.043 41.6247C98.4512 42.0481 99.0171 42.269 99.75 42.269C100.372 42.269 100.928 42.1586 101.401 41.9377V42.4071C101.012 42.6188 100.464 42.7293 99.75 42.7293C98.8408 42.7293 98.145 42.4623 97.6533 41.9193C97.1523 41.367 96.9111 40.5938 96.9111 39.6088ZM99.3511 37.0591C98.8315 37.0591 98.3955 37.2524 98.043 37.6482C97.6904 38.0348 97.4863 38.5411 97.4399 39.1578H101.086C101.077 38.4674 100.919 37.952 100.631 37.593C100.344 37.2432 99.917 37.0591 99.3511 37.0591Z" fill="white"/>
<path d="M105.214 36.7737L105.298 37.7126H105.307C105.548 37.3721 105.836 37.1051 106.17 36.9118C106.504 36.7185 106.866 36.6265 107.265 36.6265C107.877 36.6265 108.35 36.8106 108.666 37.1696C108.981 37.5285 109.139 38.0532 109.139 38.7528V42.5728H108.647V38.8172C108.647 38.2373 108.536 37.8047 108.313 37.5193C108.09 37.234 107.719 37.0867 107.209 37.0867C106.856 37.0867 106.513 37.1972 106.179 37.4089C105.845 37.6298 105.558 37.9244 105.316 38.2925V42.5728H104.815V36.7829L105.214 36.7737Z" fill="white"/>
<path d="M112.154 39.7193C112.154 38.9829 112.284 38.3846 112.553 37.9244C112.822 37.4641 113.156 37.1327 113.564 36.9302C113.972 36.7277 114.399 36.6265 114.835 36.6265C115.132 36.6265 115.419 36.6541 115.689 36.7185C115.967 36.7829 116.189 36.8566 116.366 36.9578V37.4641C116.152 37.3444 115.902 37.2524 115.614 37.188C115.336 37.1143 115.067 37.0867 114.816 37.0867C114.455 37.0867 114.111 37.1788 113.777 37.3536C113.453 37.5285 113.184 37.8139 112.97 38.2097C112.766 38.6055 112.655 39.121 112.655 39.7377C112.655 40.5109 112.859 41.1276 113.267 41.5787C113.675 42.0389 114.223 42.2598 114.918 42.2598C115.373 42.2598 115.874 42.1402 116.44 41.9101V42.3795C115.976 42.6096 115.457 42.7293 114.881 42.7293C114.371 42.7293 113.907 42.6188 113.49 42.3979C113.072 42.177 112.748 41.8456 112.497 41.3946C112.274 40.9435 112.154 40.382 112.154 39.7193Z" fill="white"/>
<path d="M119.845 36.7737L119.928 37.8047H119.937C120.169 37.4641 120.494 37.188 120.912 36.9578C121.338 36.7369 121.765 36.6265 122.21 36.6265H122.377V37.1143H122.21C121.756 37.1143 121.311 37.234 120.884 37.4825C120.457 37.731 120.142 38.0532 119.928 38.4582V42.5636H119.427V36.7737H119.845Z" fill="white"/>
<path d="M124.094 36.7734H124.632C125.81 39.9307 126.469 41.6888 126.608 42.0294H126.654L128.695 36.7734H129.233L125.708 45.4444H125.17L126.339 42.6093L124.094 36.7734Z" fill="white"/>
<path d="M132.276 36.7737L132.434 37.4457H132.443C132.647 37.2064 132.917 37.0039 133.25 36.8566C133.594 36.7001 133.918 36.6265 134.243 36.6265C135.06 36.6265 135.681 36.8842 136.117 37.4089C136.553 37.9336 136.767 38.6699 136.767 39.618C136.767 40.4373 136.627 41.0724 136.34 41.5419C136.052 42.0021 135.728 42.3151 135.347 42.4808C134.967 42.6464 134.605 42.7293 134.243 42.7293C133.473 42.7293 132.87 42.49 132.425 42.0205H132.416L132.425 43.1527V45.4631H131.924V36.7829L132.276 36.7737ZM136.247 39.6272C136.247 38.8172 136.071 38.1913 135.718 37.7403C135.366 37.2892 134.874 37.0683 134.252 37.0683C133.881 37.0683 133.529 37.1603 133.204 37.3444C132.879 37.5285 132.62 37.7587 132.434 38.0348V41.4866C132.722 41.7536 133 41.9469 133.278 42.0665C133.557 42.1862 133.881 42.2506 134.234 42.2506C134.726 42.2506 135.18 42.0757 135.607 41.7352C136.034 41.3946 136.247 40.695 136.247 39.6272Z" fill="white"/>
<path d="M140.014 41.1826V37.2429H138.854V36.7735H140.014V35.2271H140.515V36.7735H142.305V37.2429H140.515V41.0353C140.515 41.4864 140.598 41.7993 140.774 41.9834C140.951 42.1675 141.229 42.2596 141.6 42.2596C141.925 42.2596 142.194 42.2227 142.398 42.1583V42.5909C142.147 42.6738 141.851 42.7198 141.507 42.7198C141.043 42.7198 140.672 42.5909 140.413 42.3332C140.153 42.0755 140.014 41.6889 140.014 41.1826Z" fill="white"/>
<path d="M144.764 39.6088C144.764 39.0013 144.866 38.4766 145.079 38.0256C145.292 37.5746 145.58 37.2248 145.951 36.9855C146.322 36.7461 146.74 36.6265 147.204 36.6265C147.89 36.6265 148.438 36.8474 148.846 37.2892C149.254 37.731 149.458 38.4306 149.458 39.3879V39.6088H145.292C145.292 40.5201 145.497 41.1921 145.896 41.6247C146.304 42.0481 146.87 42.269 147.603 42.269C148.224 42.269 148.781 42.1586 149.254 41.9377V42.4071C148.864 42.6188 148.317 42.7293 147.603 42.7293C146.693 42.7293 145.998 42.4623 145.506 41.9193C145.014 41.367 144.764 40.5938 144.764 39.6088ZM147.213 37.0591C146.693 37.0591 146.257 37.2524 145.905 37.6482C145.552 38.0348 145.348 38.5411 145.302 39.1578H148.948C148.938 38.4674 148.781 37.952 148.493 37.593C148.196 37.2432 147.77 37.0591 147.213 37.0591Z" fill="white"/>
<path d="M152.241 39.7003C152.241 38.7614 152.473 38.0066 152.928 37.4543C153.382 36.9021 154.004 36.6167 154.774 36.6167C155.173 36.6167 155.525 36.6811 155.813 36.8192C156.11 36.9481 156.36 37.1598 156.583 37.4451H156.611L156.583 36.7456V33.5791H157.084V41.4216C157.084 41.9003 157.093 42.2777 157.121 42.563H156.75L156.611 41.8911H156.583C156.416 42.112 156.156 42.3053 155.804 42.471C155.451 42.6367 155.108 42.7195 154.765 42.7195C154.31 42.7195 153.883 42.6091 153.512 42.3974C153.132 42.1856 152.826 41.8543 152.594 41.4032C152.362 40.9522 152.241 40.3815 152.241 39.7003ZM156.583 41.2559V37.9698C156.073 37.3715 155.47 37.0769 154.792 37.0769C154.171 37.0769 153.67 37.3163 153.317 37.7857C152.956 38.2644 152.779 38.9087 152.779 39.7279C152.779 40.5196 152.956 41.1363 153.317 41.5873C153.67 42.0384 154.162 42.2593 154.792 42.2593C155.173 42.2593 155.525 42.1672 155.859 41.9739C156.193 41.7806 156.416 41.5505 156.583 41.2559Z" fill="white"/>
<path d="M166.454 42.4255V41.91C166.909 42.1586 167.438 42.2782 168.041 42.2782C168.532 42.2782 168.931 42.1678 169.219 41.9377C169.506 41.7075 169.655 41.3854 169.655 40.9712C169.655 40.6582 169.562 40.4189 169.367 40.244C169.172 40.0783 168.857 39.9402 168.402 39.8298C167.994 39.7285 167.651 39.6272 167.391 39.5168C167.131 39.4063 166.918 39.2498 166.751 39.0473C166.584 38.8448 166.5 38.5687 166.5 38.2281C166.5 37.685 166.686 37.28 167.048 37.0223C167.419 36.7553 167.883 36.6265 168.458 36.6265C168.978 36.6265 169.46 36.7369 169.915 36.9578V37.4457C169.673 37.326 169.441 37.234 169.209 37.1696C168.987 37.1051 168.718 37.0775 168.421 37.0775C167.948 37.0775 167.595 37.1788 167.345 37.3721C167.104 37.5654 166.983 37.8415 166.983 38.2005C166.983 38.449 167.039 38.6423 167.159 38.7804C167.271 38.9185 167.428 39.0289 167.632 39.1026C167.836 39.1762 168.133 39.2683 168.542 39.3603C169.107 39.4984 169.516 39.6917 169.766 39.931C170.026 40.1703 170.146 40.5109 170.146 40.9527C170.146 41.4958 169.961 41.9377 169.581 42.2598C169.209 42.582 168.69 42.7477 168.041 42.7477C167.345 42.7201 166.816 42.6188 166.454 42.4255Z" fill="white"/>
<path d="M172.679 40.8974C172.679 40.3728 172.865 39.9493 173.245 39.6272C173.625 39.305 174.108 39.1393 174.702 39.1393C175.268 39.1393 175.861 39.2498 176.492 39.4799V38.7343C176.492 38.182 176.353 37.7678 176.065 37.4916C175.778 37.2063 175.323 37.0682 174.692 37.0682C174.284 37.0682 173.783 37.1695 173.189 37.3628V36.8933C173.31 36.8197 173.523 36.7553 173.82 36.7C174.117 36.6448 174.405 36.6172 174.692 36.6172C175.472 36.6172 176.047 36.7921 176.427 37.1419C176.808 37.4917 176.993 38.0255 176.993 38.7343V40.7041C176.993 41.1092 177.012 41.7351 177.04 42.5543H176.585L176.501 41.8824H176.474C176.279 42.1033 176 42.2966 175.639 42.4623C175.277 42.628 174.924 42.7108 174.572 42.7108C173.997 42.7108 173.542 42.5635 173.189 42.2598C172.855 41.9652 172.679 41.505 172.679 40.8974ZM176.501 41.3669V39.9217C176.186 39.8021 175.908 39.7284 175.657 39.6732C175.407 39.6272 175.073 39.5996 174.646 39.5996C174.191 39.5996 173.839 39.71 173.579 39.9401C173.319 40.1611 173.199 40.4832 173.199 40.8974C173.199 41.3577 173.329 41.7075 173.579 41.9284C173.83 42.1493 174.173 42.269 174.581 42.269C175.036 42.269 175.416 42.1769 175.713 42.002C176.019 41.8271 176.279 41.6154 176.501 41.3669Z" fill="white"/>
<path d="M179.693 37.2429V36.7735H180.76V35.7057C180.76 34.9325 180.955 34.3526 181.344 33.9844C181.734 33.6162 182.244 33.4321 182.875 33.4321C183.125 33.4321 183.367 33.4505 183.58 33.4874V33.9568C183.33 33.92 183.107 33.8924 182.912 33.8924C182.365 33.8924 181.957 34.0396 181.678 34.3434C181.4 34.638 181.261 35.1166 181.261 35.7794V36.7827H183.116V37.2521H181.261V42.5725H180.76V37.2521H179.693V37.2429Z" fill="white"/>
<path d="M185.315 39.6088C185.315 39.0013 185.417 38.4766 185.63 38.0256C185.844 37.5746 186.131 37.2248 186.502 36.9855C186.874 36.7461 187.291 36.6265 187.755 36.6265C188.441 36.6265 188.989 36.8474 189.397 37.2892C189.805 37.731 190.009 38.4306 190.009 39.3879V39.6088H185.844C185.844 40.5201 186.048 41.1921 186.447 41.6247C186.855 42.0481 187.421 42.269 188.154 42.269C188.775 42.269 189.332 42.1586 189.805 41.9377V42.4071C189.416 42.6188 188.868 42.7293 188.154 42.7293C187.245 42.7293 186.549 42.4623 186.057 41.9193C185.556 41.367 185.315 40.5938 185.315 39.6088ZM187.755 37.0591C187.235 37.0591 186.799 37.2524 186.447 37.6482C186.094 38.0348 185.89 38.5411 185.844 39.1578H189.49C189.48 38.4674 189.323 37.952 189.035 37.593C188.748 37.2432 188.321 37.0591 187.755 37.0591Z" fill="white"/>
<path d="M33.1572 47C32.749 47 32.415 46.6686 32.415 46.2636V0.736389C32.415 0.331375 32.749 0 33.1572 0C33.5654 0 33.8994 0.331375 33.8994 0.736389V46.2636C33.8994 46.6686 33.5654 47 33.1572 47Z" fill="#E41139"/>
<path d="M55.293 9.9874V10.6041H52.8901V9.85854C52.8901 7.83347 52.1108 6.63684 50.2925 6.63684C48.4741 6.63684 47.6948 7.83347 47.6948 9.83092C47.6948 14.8936 55.3301 15.3722 55.3301 21.7236C55.3301 25.1386 53.6694 27.3662 50.1997 27.3662C46.7207 27.3662 45.0972 25.1386 45.0972 21.7236V20.4349H47.4629V21.8525C47.4629 23.8867 48.3071 25.0742 50.1255 25.0742C51.9438 25.0742 52.7881 23.8775 52.7881 21.8525C52.7881 16.8266 45.1899 16.3388 45.1899 9.99661C45.1899 6.51717 46.8135 4.35403 50.2275 4.35403C53.6694 4.34483 55.293 6.5724 55.293 9.9874Z" fill="#E41139"/>
<path d="M60.0986 22.5794L59.2266 27.1266H56.8887L61.2397 4.57471H64.9043L69.2554 27.1266H66.7227L65.8413 22.5794H60.0986ZM60.4233 20.4255H65.4888L62.9189 7.4098L60.4233 20.4255Z" fill="#E41139"/>
<path d="M72.3447 4.57471L76.0464 24.1995L79.7109 4.57471H82.0488L77.7905 27.1266H74.0518L69.7656 4.57471H72.3447Z" fill="#E41139"/>
<path d="M92.0869 14.562V16.8172H86.5391V24.8438H93.3579V27.1358H83.9971V4.57471H93.3486V6.85751H86.5298V14.562H92.0869Z" fill="#E41139"/>
<path d="M98.9707 27.1266V6.85751H94.7773V4.57471H105.66V6.85751H101.466V27.1266H98.9707Z" fill="#E41139"/>
<path d="M107.181 10.0149C107.181 6.5631 108.897 4.34473 112.376 4.34473C115.883 4.34473 117.609 6.5723 117.609 10.0149V21.6775C117.609 25.0925 115.883 27.3477 112.376 27.3477C108.897 27.3477 107.181 25.0925 107.181 21.6775V10.0149ZM109.686 21.8063C109.686 23.8682 110.567 25.0649 112.386 25.0649C114.241 25.0649 115.085 23.8682 115.085 21.8063V9.88605C115.085 7.85178 114.241 6.62753 112.386 6.62753C110.567 6.62753 109.686 7.85178 109.686 9.88605V21.8063Z" fill="#E41139"/>
<path d="M127.768 15.0774V17.3695H122.535V27.1266H120.002V4.57471H129.029V6.85751H122.535V15.0774H127.768Z" fill="#E41139"/>
<path d="M133.455 21.8062C133.455 23.8405 134.271 25.0647 136.117 25.0647C137.936 25.0647 138.743 23.8405 138.743 21.8062V4.57471H141.118V21.6865C141.118 25.1015 139.522 27.3936 136.015 27.3936C132.536 27.3936 130.95 25.1015 130.95 21.6865V4.57471H133.455V21.8062Z" fill="#E41139"/>
<path d="M146.897 27.1266V6.85751H142.704V4.57471H153.586V6.85751H149.393V27.1266H146.897Z" fill="#E41139"/>
<path d="M157.706 21.8062C157.706 23.8405 158.522 25.0647 160.368 25.0647C162.187 25.0647 163.003 23.8405 163.003 21.8062V4.57471H165.369V21.6865C165.369 25.1015 163.773 27.3936 160.266 27.3936C156.796 27.3936 155.201 25.1015 155.201 21.6865V4.57471H157.696L157.706 21.8062Z" fill="#E41139"/>
<path d="M172.93 4.57471C176.501 4.57471 177.995 6.37886 177.995 9.72942V11.5704C177.995 14.0557 177.114 15.6021 175.166 16.2096C177.244 16.8264 178.023 18.5016 178.023 20.9133V24.4296C178.023 25.4237 178.051 26.3626 178.478 27.1358H175.908C175.611 26.4915 175.481 25.9116 175.481 24.3928V20.8489C175.481 18.2991 174.284 17.4983 172.169 17.4983H170.378V27.1266H167.846V4.57471H172.93ZM172.28 15.2063C174.293 15.2063 175.5 14.562 175.5 12.1135V9.95034C175.5 7.92527 174.748 6.85751 172.874 6.85751H170.406V15.2063H172.28Z" fill="#E41139"/>
<path d="M188.748 14.562V16.8172H183.2V24.8438H190.019V27.1358H180.667V4.57471H190.019V6.85751H183.2V14.562H188.748Z" fill="#E41139"/>
<path d="M18.249 17.784H10.7437H4.92676C4.23096 17.8116 3.90625 17.1765 3.90625 16.7715V11.3867C3.90625 10.7147 4.40723 10.2084 4.94531 10.2084L16.4585 10.2176C17.0059 10.2176 17.5811 10.7331 17.5811 11.4143L17.5903 14.6176C17.5903 15.0134 17.9614 15.3447 18.2769 15.3447H20.7075C21.1064 15.3263 21.3477 14.995 21.3477 14.5992V14.8753V8.92896C21.3477 7.57585 20.4663 6.48047 19.3809 6.48047H2.11572C1.03027 6.48047 0.148926 7.57585 0.148926 8.92896V20.8032C0.148926 21.199 0.408691 21.5212 0.724121 21.5212H16.3193C16.6348 21.5212 17.4326 21.8434 17.4976 22.7823L17.5903 34.4724C17.5903 36.5343 16.6812 36.5711 15.0298 36.5711H6.49463C4.81543 36.5711 3.9248 36.6172 3.9248 34.5277L3.91553 24.6785C3.91553 24.2827 3.69287 23.9697 3.36816 23.9697H0.724121C0.408691 23.9697 0.148926 24.2919 0.148926 24.6877V35.8071C0.148926 38.992 1.78174 40.5292 4.34229 40.5292H16.9873C19.5479 40.5292 21.3569 38.992 21.3569 35.8071V18.6493C21.3569 18.2535 21.2085 17.8577 20.5312 17.784H18.249Z" fill="#E41139"/>
<path d="M10.7432 29.6581C11.7833 29.6581 12.6265 28.8215 12.6265 27.7895C12.6265 26.7575 11.7833 25.9209 10.7432 25.9209C9.70305 25.9209 8.85986 26.7575 8.85986 27.7895C8.85986 28.8215 9.70305 29.6581 10.7432 29.6581Z" fill="#E41139"/>
<path d="M10.9102 31.7384H10.5762C10.2793 31.7384 10.0474 31.499 10.0474 31.2137V28.802C10.0474 28.5075 10.2886 28.2773 10.5762 28.2773H10.9102C11.207 28.2773 11.439 28.5167 11.439 28.802V31.2137C11.4482 31.5082 11.207 31.7384 10.9102 31.7384Z" fill="#E41139"/>
</g>
<defs>
<clipPath id="clip0">
<rect width="190" height="47" fill="white"/>
</clipPath>
</defs>
</svg>
