<?xml version="1.0" encoding="utf-8"?>
<!-- Generator: Adobe Illustrator 23.0.0, SVG Export Plug-In . SVG Version: 6.00 Build 0)  -->
<svg version="1.1" id="Layer_1" xmlns="http://www.w3.org/2000/svg" xmlns:xlink="http://www.w3.org/1999/xlink" x="0px" y="0px"
	 viewBox="0 0 21.2 34" style="enable-background:new 0 0 21.2 34;" xml:space="preserve">
<style type="text/css">
	.st0{fill:#E41139;}
</style>
<g>
	<g>
		<path class="st0" d="M18.1,11.3h-7.5H4.8c-0.7,0-1-0.6-1-1V4.9c0-0.7,0.5-1.2,1-1.2l11.5,0c0.5,0,1.1,0.5,1.1,1.2l0,3.2
			c0,0.4,0.4,0.7,0.7,0.7h2.4c0.4,0,0.6-0.3,0.6-0.7v0.3V2.4c0-1.4-0.9-2.4-2-2.4H2C0.9,0,0,1.1,0,2.4v11.9C0,14.7,0.3,15,0.6,15
			h15.6c0.3,0,1.1,0.3,1.2,1.3L17.4,28c0,2.1-0.9,2.1-2.6,2.1H6.3c-1.7,0-2.6,0-2.6-2l0-9.8c0-0.4-0.2-0.7-0.5-0.7H0.6
			c-0.3,0-0.6,0.3-0.6,0.7v11.1C0,32.5,1.6,34,4.2,34h12.6c2.6,0,4.4-1.5,4.4-4.7V12.2c0-0.4-0.1-0.8-0.8-0.9H18.1z"/>
		<path class="st0" d="M10.6,23.2c1,0,1.9-0.8,1.9-1.9c0-1-0.8-1.9-1.9-1.9c-1,0-1.9,0.8-1.9,1.9C8.7,22.3,9.6,23.2,10.6,23.2z"/>
		<path class="st0" d="M10.8,25.3h-0.3c-0.3,0-0.5-0.2-0.5-0.5v-2.4c0-0.3,0.2-0.5,0.5-0.5h0.3c0.3,0,0.5,0.2,0.5,0.5v2.4
			C11.3,25,11.1,25.3,10.8,25.3z"/>
	</g>
</g>
</svg>
