<svg width="130" height="46" viewBox="0 0 130 46" fill="none" xmlns="http://www.w3.org/2000/svg">
<path d="M75.2896 28.8594L83.7329 19.6999L75.2896 10.5391H84.1982L88.3801 14.9888L92.407 10.5391H101.005L92.6015 19.6621L101.12 28.8594H92.175L88.031 24.3731L83.9262 28.8594H75.2896Z" fill="#FF6600"/>
<path d="M75.2895 6.43233H65.7267V10.5391H75.2895V16.7283H65.7267V22.4093H75.2895V28.8594H58.6981V0H75.2895V6.43233Z" fill="#FF6600"/>
<path d="M51.6991 0V11.8107H51.6221C50.0726 10.0911 48.1366 9.49359 45.8903 9.49359C41.2889 9.49359 37.8228 12.5136 36.6061 16.5065C35.2186 12.1069 31.6403 9.41114 26.3342 9.41114C22.0251 9.41114 18.6224 11.2786 16.8467 14.3216V10.5395H7.93979V6.43318H17.6597V0H0V28.8599H7.93979V16.7283H15.8536C15.6177 17.6195 15.4918 18.5737 15.4918 19.5805C15.4918 25.6006 20.2551 29.8246 26.3342 29.8246C31.4462 29.8246 34.815 27.5075 36.5969 23.2831H29.7928C28.8724 24.5521 28.1742 24.9291 26.3342 24.9291C24.2006 24.9291 22.361 23.1318 22.361 21.0012H36.2157C36.8166 25.7829 40.6744 29.9066 45.9686 29.9066C48.2524 29.9066 50.3433 28.822 51.6221 26.9907H51.6991V28.859H58.6982V0H51.6991ZM22.582 16.8146C23.0235 14.9816 24.4959 13.7835 26.3342 13.7835C28.3578 13.7835 29.7554 14.9446 30.123 16.8146C30.2779 16.8146 22.582 16.8146 22.582 16.8146ZM47.4516 24.4654C44.8717 24.4654 43.2685 22.1445 43.2685 19.7211C43.2685 17.1308 44.663 14.6399 47.4516 14.6399C50.3433 14.6399 51.4953 17.1308 51.4953 19.7211C51.4948 22.1776 50.2742 24.4654 47.4516 24.4654Z" fill="#7E38B3"/>
<path d="M62.5525 42.6869C63.6332 42.6869 64.8015 42.0728 65.0242 40.9733H66.0886C65.7048 42.5585 64.2834 43.4578 62.5239 43.4578C59.2691 43.4578 57.9525 41.0302 57.9525 38.1177C57.9525 35.2048 59.2691 32.7764 62.5239 32.7764C64.2838 32.7764 65.7048 33.6752 66.0886 35.2617H65.0242C64.8019 34.161 63.6332 33.549 62.5525 33.549C59.8748 33.549 58.9729 35.9048 58.9729 38.1186C58.9729 40.3303 59.8753 42.6869 62.5525 42.6869Z" fill="#7E38B3"/>
<path d="M70.5263 43.4578C68.247 43.4578 67.0206 41.7586 67.0206 39.6736C67.0206 37.589 68.247 35.8894 70.5263 35.8894C72.8035 35.8894 74.0321 37.589 74.0321 39.6736C74.0321 41.7586 72.8035 43.4578 70.5263 43.4578ZM70.5263 42.8007C72.3162 42.8007 73.0702 41.2308 73.0702 39.6736C73.0702 38.1177 72.3162 36.546 70.5263 36.546C68.7361 36.546 67.9811 38.1177 67.9811 39.6736C67.9811 41.2303 68.7356 42.8007 70.5263 42.8007Z" fill="#7E38B3"/>
<path d="M78.734 36.731C77.2413 36.731 76.7236 37.9461 76.7236 39.2015V43.2879H75.8212V38.1888C75.8212 37.4901 75.8063 36.7739 75.7772 36.0604H76.6633L76.7236 37.102C77.1687 36.275 77.9064 35.8887 78.8973 35.8887C79.0307 35.8887 79.179 35.9031 79.3129 35.9167V36.7888C79.1042 36.7612 78.9422 36.731 78.734 36.731Z" fill="#7E38B3"/>
<path d="M81.2296 46.0001H80.3267V38.2167C80.3267 37.5027 80.3267 36.7738 80.2814 36.0611H81.1692L81.1992 37.1474C81.7604 36.2885 82.5008 35.8894 83.611 35.8894C85.9176 35.8894 86.909 37.7326 86.909 39.6736C86.909 41.6167 85.9176 43.4578 83.611 43.4578C82.5748 43.4578 81.7618 43.0744 81.2296 42.2448V46.0001ZM85.948 39.6732C85.948 38.1317 85.2816 36.617 83.5067 36.617C81.8361 36.617 81.2296 37.9464 81.2296 39.6732C81.2296 41.402 81.8361 42.7289 83.5067 42.7289C85.2816 42.7293 85.948 41.2167 85.948 39.6732Z" fill="#7E38B3"/>
<path d="M91.5551 43.4578C89.2758 43.4578 88.049 41.7586 88.049 39.6736C88.049 37.589 89.2758 35.8894 91.5551 35.8894C93.8318 35.8894 95.0608 37.589 95.0608 39.6736C95.0604 41.7586 93.8314 43.4578 91.5551 43.4578ZM91.5551 42.8007C93.3441 42.8007 94.099 41.2308 94.099 39.6736C94.099 38.1177 93.3441 36.546 91.5551 36.546C89.764 36.546 89.0099 38.1177 89.0099 39.6736C89.0095 41.2303 89.7635 42.8007 91.5551 42.8007Z" fill="#7E38B3"/>
<path d="M99.7656 36.731C98.2707 36.731 97.7539 37.9461 97.7539 39.2015V43.2879H96.8511V38.1888C96.8511 37.4901 96.8366 36.7739 96.8053 36.0604H97.6945L97.7539 37.102C98.1972 36.275 98.9372 35.8887 99.9276 35.8887C100.062 35.8887 100.208 35.9031 100.341 35.9167V36.7888C100.136 36.7612 99.9707 36.731 99.7656 36.731Z" fill="#7E38B3"/>
<path d="M105.657 43.2879C105.597 42.9432 105.569 42.7014 105.539 42.3159C104.961 43.1574 104.208 43.4579 103.037 43.4579C101.677 43.4579 100.434 42.7877 100.434 41.3308C100.434 39.2313 102.727 38.9172 104.562 38.9172C104.917 38.9172 105.213 38.9312 105.434 38.9444V38.4017C105.434 37.1751 104.916 36.5453 103.599 36.5453C102.639 36.5453 101.958 36.9027 101.84 37.9304H100.937C100.952 36.3749 102.357 35.8887 103.599 35.8887C105.449 35.8887 106.338 36.3749 106.338 38.1594V40.6155C106.338 41.7307 106.381 42.3873 106.515 43.2879H105.657ZM105.436 39.6019C105.184 39.5883 104.977 39.5751 104.726 39.5751C103.483 39.5751 101.397 39.6452 101.397 41.3019C101.397 42.3019 102.255 42.8 103.203 42.8C104.712 42.8 105.436 41.9445 105.436 40.2742V39.6019Z" fill="#7E38B3"/>
<path d="M110.243 43.4578C109.164 43.4578 108.661 42.845 108.661 41.802V36.7178H107.446V36.0607H108.661V34.5894L109.563 34.2043V36.0607H111.22V36.7178H109.563V41.4174C109.563 42.4306 109.739 42.7298 110.494 42.7298C110.777 42.7298 111.13 42.6312 111.293 42.5441V43.2882C110.983 43.3728 110.717 43.4578 110.243 43.4578Z" fill="#7E38B3"/>
<path d="M112.414 34.0463V32.9604H113.494V34.0463H112.414ZM112.503 43.2879V36.0608H113.405V43.2883L112.503 43.2879Z" fill="#7E38B3"/>
<path d="M118.701 43.4578C116.423 43.4578 115.195 41.7586 115.195 39.6736C115.195 37.589 116.423 35.8894 118.701 35.8894C120.98 35.8894 122.207 37.589 122.207 39.6736C122.207 41.7586 120.979 43.4578 118.701 43.4578ZM118.701 42.8007C120.491 42.8007 121.245 41.2308 121.245 39.6736C121.245 38.1177 120.491 36.546 118.701 36.546C116.912 36.546 116.157 38.1177 116.157 39.6736C116.157 41.2303 116.912 42.8007 118.701 42.8007Z" fill="#7E38B3"/>
<path d="M124.837 36.0609L124.867 37.1472C125.386 36.3031 126.197 35.8892 127.294 35.8892C129.29 35.8892 129.956 36.9453 129.956 38.76V43.2884H129.053V39.1017C129.053 37.76 128.729 36.6163 127.145 36.6163C125.46 36.6163 124.898 38.0596 124.898 39.4872V43.2875H123.995V38.2169C123.995 37.5029 123.98 36.774 123.951 36.0613H124.837V36.0609Z" fill="#7E38B3"/>
</svg>
