<svg width="63" height="75" viewBox="0 0 63 75" fill="none" xmlns="http://www.w3.org/2000/svg">
<path fill-rule="evenodd" clip-rule="evenodd" d="M2.14758 22.6703L2.41498 53.1251L9.23374 61.5774L29.6908 72.4446L54.8268 60.1015L60.0412 47.6244L59.5064 7.24075L40.5206 6.70408L20.7329 9.924L2.68318 20.3886L2.14758 22.6703Z" fill="#301506"/>
<path d="M31.4367 0.662226C19.521 0.662226 9.1271 2.97712 0.542114 7.54218V44.0384C0.542114 51.7179 3.41764 58.1395 8.85637 62.6132C13.9062 66.7699 29.5235 73.6198 31.4373 74.4518C33.2523 73.6592 49.0547 66.7033 54.0243 62.6132C59.4601 58.142 62.3363 51.7183 62.3363 44.0384V7.54218C53.7501 2.97652 43.3562 0.661621 31.4357 0.661621L31.4367 0.662226ZM49.0806 7.72889C52.634 7.77551 56.1231 7.99578 59.4959 8.3103V44.0381C59.4959 50.9039 57.0131 56.45 52.2227 60.4094C47.9431 63.9459 35.0382 69.7476 31.4373 71.3403C27.7882 69.7261 14.851 63.8511 10.6484 60.4108C5.8863 56.5192 3.37966 50.8415 3.37966 44.0396V23.1632C17.0645 10.5698 33.6822 7.52762 49.0794 7.7297L49.0806 7.72889ZM32.2423 24.3652C29.3105 24.3652 26.9449 25.0228 24.9973 26.2842V61.4361H30.3746V50.0796C30.9112 50.2385 31.6901 50.3869 32.7935 50.3869C38.7583 50.3869 42.1866 44.9914 42.1866 37.1134C42.1866 29.2509 38.6565 24.3652 32.2424 24.3652L32.2423 24.3652ZM50.6158 24.3652C47.0794 24.468 43.3812 27.0386 43.4037 31.3964C43.4128 34.2657 44.2055 36.4116 48.6372 39.0209C51.0023 40.4139 51.9552 41.3319 51.996 43.0246C52.0412 44.9063 50.7456 46.0409 48.7739 46.0332C47.0584 46.0196 45.0078 45.0643 43.6346 43.8375V48.8031C45.3183 49.8105 47.4192 50.4764 49.5417 50.4764C54.8538 50.4764 57.2258 46.7111 57.3283 43.2608C57.4293 40.116 56.5633 37.7365 52.0712 35.088C50.0664 33.9082 48.4831 33.1327 48.5359 31.1694C48.5887 29.2528 50.1743 28.5795 51.6968 28.5932C53.575 28.6099 55.3919 29.6536 56.5134 30.8078V26.1187C55.5682 25.3881 53.5672 24.2743 50.6157 24.365L50.6158 24.3652ZM6.12555 24.9111V41.8669C6.12555 47.5831 8.8202 50.4769 14.1383 50.4769C17.4291 50.4769 20.1852 49.7126 22.2383 48.3119V24.9112H16.8729V45.2419C16.288 45.6443 15.4205 45.9013 14.3291 45.9013C11.866 45.9013 11.498 43.6348 11.498 42.1056V24.9115H6.12543L6.12555 24.9111ZM32.2785 28.7092C35.3972 28.7092 36.69 31.2078 36.69 37.2507C36.69 43.1469 35.2115 45.9956 32.1183 45.9956C31.3903 45.9956 30.7574 45.8146 30.373 45.6694V29.0997C30.8086 28.8819 31.5489 28.7097 32.2785 28.7097V28.7092Z" fill="#FAB80A"/>
</svg>
